%TF.GenerationSoftware,KiCad,Pcbnew,8.0.6*%
%TF.CreationDate,2024-11-04T13:00:15-03:00*%
%TF.ProjectId,chaveiro-fritzenlab,63686176-6569-4726-9f2d-667269747a65,rev?*%
%TF.SameCoordinates,Original*%
%TF.FileFunction,Copper,L2,Bot*%
%TF.FilePolarity,Positive*%
%FSLAX46Y46*%
G04 Gerber Fmt 4.6, Leading zero omitted, Abs format (unit mm)*
G04 Created by KiCad (PCBNEW 8.0.6) date 2024-11-04 13:00:15*
%MOMM*%
%LPD*%
G01*
G04 APERTURE LIST*
%TA.AperFunction,ComponentPad*%
%ADD10R,1.700000X1.700000*%
%TD*%
%TA.AperFunction,ComponentPad*%
%ADD11O,1.700000X1.700000*%
%TD*%
%TA.AperFunction,SMDPad,CuDef*%
%ADD12R,5.000000X5.000000*%
%TD*%
%TA.AperFunction,SMDPad,CuDef*%
%ADD13R,4.000000X4.000000*%
%TD*%
%TA.AperFunction,ViaPad*%
%ADD14C,0.600000*%
%TD*%
%TA.AperFunction,Conductor*%
%ADD15C,0.400000*%
%TD*%
G04 APERTURE END LIST*
D10*
%TO.P,J1,1,Pin_1*%
%TO.N,LED2*%
X112220000Y-73300000D03*
D11*
%TO.P,J1,2,Pin_2*%
%TO.N,LED1*%
X109680000Y-73300000D03*
%TO.P,J1,3,Pin_3*%
%TO.N,MCLR*%
X107140000Y-73300000D03*
%TO.P,J1,4,Pin_4*%
%TO.N,GND*%
X104600000Y-73300000D03*
%TO.P,J1,5,Pin_5*%
%TO.N,VCC*%
X102060000Y-73300000D03*
%TD*%
D12*
%TO.P,BT1,1,+*%
%TO.N,Net-(BT1-+)*%
X138350000Y-79000000D03*
X112450000Y-79000000D03*
D13*
%TO.P,BT1,2,-*%
%TO.N,GND*%
X125400000Y-79000000D03*
%TD*%
D14*
%TO.N,LED2*%
X129000000Y-80135000D03*
X128000000Y-74600000D03*
%TO.N,MCLR*%
X120500000Y-78900000D03*
%TO.N,GND*%
X128500000Y-86200000D03*
%TO.N,VCC*%
X119350000Y-77950000D03*
X139000000Y-74700000D03*
%TO.N,LED2*%
X136800000Y-82400000D03*
X144700000Y-82400000D03*
%TO.N,GND*%
X127400000Y-82700000D03*
X125400000Y-79000000D03*
%TO.N,Net-(BT1-+)*%
X111000000Y-78900000D03*
X113500000Y-78900000D03*
%TD*%
D15*
%TO.N,LED2*%
X129000000Y-75600000D02*
X129000000Y-80135000D01*
X128000000Y-74600000D02*
X129000000Y-75600000D01*
%TO.N,MCLR*%
X107140000Y-74540000D02*
X107140000Y-73300000D01*
X107800000Y-75200000D02*
X107140000Y-74540000D01*
X115900000Y-77800000D02*
X115900000Y-75800000D01*
X117000000Y-78900000D02*
X115900000Y-77800000D01*
X115900000Y-75800000D02*
X115300000Y-75200000D01*
X120500000Y-78900000D02*
X117000000Y-78900000D01*
X115300000Y-75200000D02*
X107800000Y-75200000D01*
%TO.N,VCC*%
X137200000Y-72900000D02*
X139000000Y-74700000D01*
X122300000Y-72900000D02*
X137200000Y-72900000D01*
X119300000Y-77900000D02*
X119300000Y-75900000D01*
X119300000Y-75900000D02*
X122300000Y-72900000D01*
X119350000Y-77950000D02*
X119300000Y-77900000D01*
%TO.N,GND*%
X104600000Y-83900000D02*
X106900000Y-86200000D01*
X106900000Y-86200000D02*
X128500000Y-86200000D01*
X104600000Y-73300000D02*
X104600000Y-83900000D01*
%TO.N,LED2*%
X144700000Y-82400000D02*
X136800000Y-82400000D01*
%TO.N,GND*%
X125400000Y-80700000D02*
X125400000Y-79000000D01*
X127400000Y-82700000D02*
X125400000Y-80700000D01*
%TO.N,Net-(BT1-+)*%
X115500000Y-79000000D02*
X112450000Y-79000000D01*
X120400000Y-83900000D02*
X115500000Y-79000000D01*
X129800000Y-83900000D02*
X120400000Y-83900000D01*
X134700000Y-79000000D02*
X129800000Y-83900000D01*
X138350000Y-79000000D02*
X134700000Y-79000000D01*
%TD*%
M02*
