%TF.GenerationSoftware,KiCad,Pcbnew,8.0.6*%
%TF.CreationDate,2024-11-04T13:00:15-03:00*%
%TF.ProjectId,chaveiro-fritzenlab,63686176-6569-4726-9f2d-667269747a65,rev?*%
%TF.SameCoordinates,Original*%
%TF.FileFunction,Legend,Top*%
%TF.FilePolarity,Positive*%
%FSLAX46Y46*%
G04 Gerber Fmt 4.6, Leading zero omitted, Abs format (unit mm)*
G04 Created by KiCad (PCBNEW 8.0.6) date 2024-11-04 13:00:15*
%MOMM*%
%LPD*%
G01*
G04 APERTURE LIST*
%ADD10C,0.187500*%
%ADD11C,0.150000*%
%ADD12C,0.120000*%
G04 APERTURE END LIST*
D10*
G36*
X116460833Y-84645000D02*
G01*
X116460833Y-83120924D01*
X116665631Y-83120924D01*
X117459176Y-84317470D01*
X117459176Y-83120924D01*
X117650785Y-83120924D01*
X117650785Y-84645000D01*
X117445987Y-84645000D01*
X116652442Y-83447355D01*
X116652442Y-84645000D01*
X116460833Y-84645000D01*
G37*
G36*
X118362264Y-84645000D02*
G01*
X118362264Y-83296779D01*
X117864741Y-83296779D01*
X117864741Y-83120924D01*
X119062020Y-83120924D01*
X119062020Y-83296779D01*
X118562299Y-83296779D01*
X118562299Y-84645000D01*
X118362264Y-84645000D01*
G37*
G36*
X120338066Y-84105711D02*
G01*
X120538101Y-84156270D01*
X120515959Y-84231453D01*
X120488914Y-84300840D01*
X120449991Y-84376454D01*
X120404009Y-84443722D01*
X120350969Y-84502644D01*
X120311688Y-84537288D01*
X120247988Y-84581862D01*
X120179162Y-84617213D01*
X120105209Y-84643342D01*
X120026130Y-84660249D01*
X119941925Y-84667934D01*
X119912718Y-84668447D01*
X119838581Y-84666005D01*
X119755496Y-84656628D01*
X119678826Y-84640219D01*
X119608570Y-84616778D01*
X119534711Y-84580541D01*
X119515212Y-84568429D01*
X119451862Y-84520394D01*
X119395490Y-84463804D01*
X119346095Y-84398658D01*
X119303677Y-84324957D01*
X119282571Y-84279002D01*
X119255429Y-84206856D01*
X119233902Y-84132754D01*
X119217991Y-84056693D01*
X119207695Y-83978674D01*
X119203016Y-83898698D01*
X119202704Y-83871605D01*
X119205872Y-83784716D01*
X119215378Y-83702104D01*
X119231220Y-83623768D01*
X119253399Y-83549708D01*
X119281916Y-83479924D01*
X119292829Y-83457613D01*
X119335906Y-83384423D01*
X119386275Y-83319368D01*
X119443937Y-83262447D01*
X119508893Y-83213660D01*
X119549284Y-83189434D01*
X119623791Y-83153603D01*
X119701454Y-83126573D01*
X119782273Y-83108343D01*
X119866247Y-83098914D01*
X119915648Y-83097477D01*
X119998153Y-83101586D01*
X120075584Y-83113912D01*
X120147939Y-83134455D01*
X120225940Y-83168809D01*
X120297034Y-83214347D01*
X120360186Y-83270036D01*
X120414362Y-83334841D01*
X120453654Y-83397644D01*
X120486352Y-83467144D01*
X120512456Y-83543342D01*
X120315352Y-83589870D01*
X120290152Y-83520522D01*
X120255771Y-83452001D01*
X120209976Y-83388599D01*
X120162944Y-83344406D01*
X120095425Y-83303834D01*
X120017887Y-83278289D01*
X119939538Y-83268146D01*
X119911618Y-83267470D01*
X119838201Y-83271502D01*
X119760949Y-83285985D01*
X119690796Y-83311001D01*
X119620359Y-83351734D01*
X119560097Y-83403682D01*
X119510789Y-83464730D01*
X119472435Y-83534877D01*
X119455861Y-83577780D01*
X119435185Y-83649244D01*
X119420416Y-83721853D01*
X119411554Y-83795607D01*
X119408600Y-83870505D01*
X119411283Y-83953250D01*
X119419329Y-84031261D01*
X119432741Y-84104538D01*
X119454637Y-84182488D01*
X119464654Y-84210125D01*
X119496734Y-84277925D01*
X119542075Y-84343307D01*
X119597211Y-84397156D01*
X119639410Y-84426646D01*
X119707716Y-84461358D01*
X119779093Y-84484709D01*
X119853543Y-84496701D01*
X119896231Y-84498454D01*
X119976923Y-84492271D01*
X120051203Y-84473724D01*
X120119072Y-84442812D01*
X120180530Y-84399535D01*
X120234065Y-84344077D01*
X120278166Y-84276620D01*
X120309016Y-84207753D01*
X120332643Y-84129700D01*
X120338066Y-84105711D01*
G37*
G36*
X133427079Y-85565000D02*
G01*
X133427079Y-84447344D01*
X134174242Y-84447344D01*
X134174242Y-84576304D01*
X133573503Y-84576304D01*
X133573503Y-84928796D01*
X134093374Y-84928796D01*
X134093374Y-85057756D01*
X133573503Y-85057756D01*
X133573503Y-85565000D01*
X133427079Y-85565000D01*
G37*
G36*
X134340816Y-85565000D02*
G01*
X134340816Y-84756849D01*
X134463328Y-84756849D01*
X134463328Y-84880704D01*
X134491837Y-84832549D01*
X134526781Y-84787127D01*
X134549570Y-84767058D01*
X134599630Y-84744177D01*
X134637156Y-84739654D01*
X134693393Y-84746926D01*
X134745935Y-84766547D01*
X134776863Y-84783715D01*
X134730115Y-84910795D01*
X134680143Y-84888831D01*
X134630170Y-84881510D01*
X134575569Y-84893197D01*
X134550108Y-84908646D01*
X134513754Y-84950415D01*
X134499598Y-84983335D01*
X134485682Y-85039869D01*
X134478568Y-85095076D01*
X134476762Y-85142655D01*
X134476762Y-85565000D01*
X134340816Y-85565000D01*
G37*
G36*
X134855851Y-84602096D02*
G01*
X134855851Y-84447344D01*
X134991796Y-84447344D01*
X134991796Y-84602096D01*
X134855851Y-84602096D01*
G37*
G36*
X134855851Y-85565000D02*
G01*
X134855851Y-84756849D01*
X134991796Y-84756849D01*
X134991796Y-85565000D01*
X134855851Y-85565000D01*
G37*
G36*
X135493667Y-85440338D02*
G01*
X135513279Y-85565000D01*
X135458874Y-85577896D01*
X135410648Y-85582194D01*
X135355898Y-85578292D01*
X135303609Y-85562777D01*
X135295659Y-85558551D01*
X135254058Y-85522890D01*
X135238164Y-85495952D01*
X135226401Y-85440850D01*
X135222560Y-85383192D01*
X135221775Y-85332871D01*
X135221775Y-84864316D01*
X135121831Y-84864316D01*
X135121831Y-84756849D01*
X135221775Y-84756849D01*
X135221775Y-84561796D01*
X135356915Y-84481734D01*
X135356915Y-84756849D01*
X135493667Y-84756849D01*
X135493667Y-84864316D01*
X135356915Y-84864316D01*
X135356915Y-85343886D01*
X135359378Y-85399654D01*
X135363900Y-85420457D01*
X135387274Y-85447592D01*
X135434023Y-85457533D01*
X135486842Y-85443411D01*
X135493667Y-85440338D01*
G37*
G36*
X135552773Y-85565000D02*
G01*
X135552773Y-85455652D01*
X136063510Y-84864047D01*
X136006109Y-84866647D01*
X135949065Y-84868253D01*
X135910101Y-84868614D01*
X135582864Y-84868614D01*
X135582864Y-84756849D01*
X136238681Y-84756849D01*
X136238681Y-84846852D01*
X135804246Y-85361618D01*
X135720422Y-85455652D01*
X135776412Y-85452110D01*
X135830197Y-85449880D01*
X135886816Y-85448942D01*
X135891831Y-85448935D01*
X136262861Y-85448935D01*
X136262861Y-85565000D01*
X135552773Y-85565000D01*
G37*
G36*
X136781627Y-84743593D02*
G01*
X136835743Y-84755409D01*
X136893625Y-84779151D01*
X136945850Y-84813614D01*
X136986113Y-84851688D01*
X137020808Y-84896903D01*
X137048326Y-84948522D01*
X137068665Y-85006544D01*
X137080130Y-85059789D01*
X137086611Y-85117480D01*
X137088206Y-85166835D01*
X137087669Y-85203911D01*
X136489078Y-85203911D01*
X136495224Y-85257556D01*
X136509236Y-85311780D01*
X136533912Y-85363751D01*
X136563768Y-85401919D01*
X136609142Y-85438047D01*
X136660971Y-85460794D01*
X136719254Y-85470161D01*
X136731685Y-85470429D01*
X136788778Y-85463999D01*
X136842231Y-85442695D01*
X136859302Y-85431472D01*
X136898669Y-85392149D01*
X136928554Y-85342233D01*
X136943126Y-85307079D01*
X137083907Y-85324274D01*
X137066620Y-85375250D01*
X137040219Y-85427086D01*
X137006732Y-85472071D01*
X136966159Y-85510205D01*
X136960589Y-85514490D01*
X136912481Y-85544111D01*
X136858160Y-85565268D01*
X136805532Y-85576839D01*
X136748148Y-85581930D01*
X136730879Y-85582194D01*
X136667447Y-85578369D01*
X136609135Y-85566893D01*
X136555942Y-85547766D01*
X136507868Y-85520988D01*
X136464914Y-85486560D01*
X136451734Y-85473384D01*
X136416673Y-85429400D01*
X136388866Y-85379258D01*
X136368312Y-85322958D01*
X136355013Y-85260499D01*
X136349472Y-85203746D01*
X136348565Y-85167641D01*
X136351110Y-85106308D01*
X136353011Y-85092145D01*
X136496601Y-85092145D01*
X136944738Y-85092145D01*
X136936986Y-85036810D01*
X136920411Y-84980607D01*
X136893422Y-84933632D01*
X136853811Y-84893891D01*
X136802670Y-84864988D01*
X136750227Y-84852704D01*
X136724968Y-84851420D01*
X136669277Y-84857821D01*
X136614745Y-84879652D01*
X136571286Y-84912941D01*
X136567260Y-84916974D01*
X136533000Y-84962249D01*
X136509812Y-85016129D01*
X136498409Y-85071980D01*
X136496601Y-85092145D01*
X136353011Y-85092145D01*
X136358745Y-85049422D01*
X136371470Y-84996983D01*
X136393459Y-84939927D01*
X136422777Y-84889275D01*
X136452808Y-84851957D01*
X136494081Y-84813792D01*
X136539718Y-84783522D01*
X136589718Y-84761150D01*
X136644082Y-84746673D01*
X136702810Y-84740093D01*
X136723356Y-84739654D01*
X136781627Y-84743593D01*
G37*
G36*
X137250481Y-85565000D02*
G01*
X137250481Y-84756849D01*
X137372725Y-84756849D01*
X137372725Y-84870226D01*
X137408639Y-84825852D01*
X137450088Y-84790659D01*
X137505441Y-84761204D01*
X137558883Y-84745902D01*
X137617859Y-84739782D01*
X137628227Y-84739654D01*
X137685215Y-84743999D01*
X137738301Y-84757036D01*
X137761486Y-84765983D01*
X137808936Y-84791975D01*
X137848682Y-84829488D01*
X137852564Y-84834762D01*
X137879665Y-84884414D01*
X137895013Y-84935781D01*
X137900883Y-84992181D01*
X137902470Y-85051441D01*
X137902536Y-85068771D01*
X137902536Y-85565000D01*
X137766591Y-85565000D01*
X137766591Y-85072264D01*
X137764361Y-85015365D01*
X137755306Y-84961031D01*
X137750739Y-84947065D01*
X137721270Y-84901623D01*
X137694319Y-84880704D01*
X137644476Y-84860501D01*
X137599480Y-84855718D01*
X137542612Y-84862290D01*
X137491333Y-84882005D01*
X137449563Y-84911332D01*
X137416269Y-84955878D01*
X137396847Y-85012703D01*
X137388646Y-85067861D01*
X137386427Y-85122773D01*
X137386427Y-85565000D01*
X137250481Y-85565000D01*
G37*
G36*
X138118276Y-85565000D02*
G01*
X138118276Y-84447344D01*
X138264968Y-84447344D01*
X138264968Y-85436039D01*
X138810362Y-85436039D01*
X138810362Y-85565000D01*
X138118276Y-85565000D01*
G37*
G36*
X139357520Y-84741588D02*
G01*
X139411159Y-84748273D01*
X139465621Y-84762599D01*
X139469672Y-84764103D01*
X139519326Y-84787677D01*
X139562060Y-84822802D01*
X139563974Y-84825090D01*
X139592347Y-84872704D01*
X139606423Y-84918318D01*
X139611854Y-84975377D01*
X139613114Y-85033157D01*
X139613140Y-85044323D01*
X139613140Y-85226748D01*
X139613350Y-85282934D01*
X139614156Y-85341319D01*
X139615860Y-85396971D01*
X139619722Y-85453192D01*
X139621737Y-85468011D01*
X139635934Y-85520540D01*
X139656395Y-85565000D01*
X139514270Y-85565000D01*
X139495238Y-85511444D01*
X139487135Y-85463443D01*
X139445094Y-85496998D01*
X139399378Y-85527202D01*
X139350304Y-85551820D01*
X139341517Y-85555327D01*
X139287692Y-85571699D01*
X139230994Y-85580515D01*
X139191601Y-85582194D01*
X139136689Y-85579070D01*
X139081079Y-85567849D01*
X139027630Y-85545471D01*
X138988220Y-85516908D01*
X138950817Y-85472562D01*
X138927266Y-85421132D01*
X138917569Y-85362619D01*
X138917292Y-85350066D01*
X138917765Y-85345767D01*
X139062372Y-85345767D01*
X139073973Y-85399340D01*
X139103478Y-85437920D01*
X139150591Y-85464339D01*
X139204887Y-85474152D01*
X139224110Y-85474727D01*
X139280656Y-85469854D01*
X139336286Y-85453574D01*
X139363817Y-85440069D01*
X139408222Y-85407479D01*
X139444043Y-85362960D01*
X139453820Y-85344692D01*
X139469633Y-85291318D01*
X139475313Y-85234508D01*
X139475851Y-85207135D01*
X139475851Y-85156625D01*
X139422291Y-85174398D01*
X139369053Y-85187370D01*
X139314893Y-85197811D01*
X139253663Y-85207404D01*
X139197671Y-85217088D01*
X139144408Y-85231294D01*
X139134912Y-85235076D01*
X139090270Y-85267695D01*
X139081179Y-85279944D01*
X139063033Y-85332402D01*
X139062372Y-85345767D01*
X138917765Y-85345767D01*
X138923195Y-85296452D01*
X138942506Y-85244339D01*
X138944159Y-85241256D01*
X138975122Y-85196791D01*
X139014281Y-85162267D01*
X139063634Y-85134676D01*
X139112344Y-85117131D01*
X139166403Y-85105941D01*
X139223295Y-85097690D01*
X139233244Y-85096444D01*
X139291953Y-85088724D01*
X139352735Y-85079049D01*
X139412031Y-85067110D01*
X139465773Y-85052555D01*
X139475851Y-85049159D01*
X139476388Y-85013695D01*
X139470985Y-84958672D01*
X139449037Y-84909128D01*
X139437969Y-84897362D01*
X139391737Y-84869366D01*
X139336812Y-84855054D01*
X139282948Y-84851420D01*
X139227908Y-84854568D01*
X139174812Y-84866658D01*
X139141360Y-84883660D01*
X139103736Y-84924747D01*
X139079533Y-84977928D01*
X139073656Y-84997575D01*
X138940666Y-84979305D01*
X138955956Y-84926193D01*
X138978864Y-84876869D01*
X139000310Y-84845778D01*
X139040220Y-84808204D01*
X139087843Y-84780447D01*
X139120404Y-84767327D01*
X139177476Y-84751572D01*
X139234484Y-84742924D01*
X139289964Y-84739762D01*
X139302829Y-84739654D01*
X139357520Y-84741588D01*
G37*
G36*
X139955153Y-84847658D02*
G01*
X139995160Y-84805575D01*
X140039717Y-84773827D01*
X140096213Y-84750201D01*
X140150523Y-84740603D01*
X140175191Y-84739654D01*
X140229508Y-84743886D01*
X140285879Y-84758020D01*
X140315167Y-84769745D01*
X140365009Y-84798010D01*
X140407136Y-84834346D01*
X140423977Y-84853838D01*
X140455626Y-84901657D01*
X140479409Y-84952410D01*
X140490875Y-84984947D01*
X140504642Y-85038859D01*
X140512694Y-85095311D01*
X140515055Y-85148834D01*
X140512563Y-85211270D01*
X140505085Y-85269115D01*
X140492623Y-85322368D01*
X140471087Y-85380212D01*
X140442374Y-85431443D01*
X140412962Y-85469085D01*
X140373332Y-85507525D01*
X140323445Y-85542319D01*
X140269624Y-85566288D01*
X140211868Y-85579433D01*
X140168206Y-85582194D01*
X140109062Y-85576525D01*
X140055755Y-85559516D01*
X140008285Y-85531168D01*
X139966651Y-85491481D01*
X139945481Y-85463712D01*
X139945481Y-85565000D01*
X139819207Y-85565000D01*
X139819207Y-85154745D01*
X139943869Y-85154745D01*
X139945746Y-85214478D01*
X139952488Y-85273299D01*
X139965933Y-85327431D01*
X139983094Y-85364842D01*
X140018038Y-85411036D01*
X140064133Y-85447229D01*
X140117412Y-85466717D01*
X140156922Y-85470429D01*
X140210309Y-85462820D01*
X140258974Y-85439994D01*
X140302915Y-85401950D01*
X140311137Y-85392515D01*
X140342566Y-85342632D01*
X140361868Y-85288122D01*
X140372091Y-85232574D01*
X140376091Y-85169699D01*
X140376154Y-85160118D01*
X140373963Y-85103695D01*
X140365867Y-85045245D01*
X140349311Y-84988175D01*
X140321372Y-84936374D01*
X140313824Y-84926646D01*
X140272322Y-84886976D01*
X140220791Y-84860309D01*
X140163101Y-84851420D01*
X140109714Y-84859028D01*
X140061050Y-84881855D01*
X140017108Y-84919898D01*
X140008886Y-84929333D01*
X139977457Y-84978664D01*
X139958155Y-85031755D01*
X139947933Y-85085345D01*
X139943932Y-85145594D01*
X139943869Y-85154745D01*
X139819207Y-85154745D01*
X139819207Y-84447344D01*
X139955153Y-84447344D01*
X139955153Y-84847658D01*
G37*
G36*
X140714944Y-85565000D02*
G01*
X140714944Y-85410247D01*
X140869965Y-85410247D01*
X140869965Y-85565000D01*
X140714944Y-85565000D01*
G37*
G36*
X141627875Y-85272690D02*
G01*
X141761671Y-85290153D01*
X141748767Y-85347258D01*
X141729332Y-85398681D01*
X141699124Y-85450492D01*
X141660385Y-85494881D01*
X141649368Y-85504818D01*
X141601646Y-85538670D01*
X141548752Y-85562850D01*
X141490686Y-85577358D01*
X141435636Y-85582119D01*
X141427449Y-85582194D01*
X141367956Y-85578397D01*
X141312997Y-85567006D01*
X141262571Y-85548021D01*
X141209472Y-85516274D01*
X141168869Y-85480835D01*
X141162543Y-85474190D01*
X141128578Y-85430291D01*
X141101640Y-85379800D01*
X141081729Y-85322715D01*
X141070505Y-85270109D01*
X141064161Y-85212924D01*
X141062599Y-85163879D01*
X141064656Y-85108323D01*
X141072044Y-85048670D01*
X141084806Y-84993115D01*
X141102941Y-84941657D01*
X141105586Y-84935512D01*
X141133445Y-84884241D01*
X141168359Y-84840747D01*
X141210330Y-84805032D01*
X141236695Y-84788551D01*
X141287476Y-84764915D01*
X141340679Y-84749013D01*
X141396305Y-84740848D01*
X141428255Y-84739654D01*
X141483209Y-84742830D01*
X141540410Y-84754235D01*
X141591633Y-84773936D01*
X141642114Y-84806015D01*
X141684224Y-84847742D01*
X141716855Y-84898267D01*
X141737903Y-84950565D01*
X141748775Y-84994351D01*
X141616591Y-85014769D01*
X141600048Y-84963596D01*
X141571656Y-84915480D01*
X141549424Y-84892526D01*
X141500162Y-84863021D01*
X141446196Y-84851781D01*
X141433628Y-84851420D01*
X141378808Y-84857285D01*
X141325074Y-84877561D01*
X141278897Y-84912320D01*
X141266517Y-84925572D01*
X141235478Y-84974104D01*
X141216415Y-85028698D01*
X141206319Y-85085311D01*
X141202557Y-85140406D01*
X141202306Y-85160118D01*
X141204488Y-85218046D01*
X141212549Y-85277726D01*
X141229034Y-85335511D01*
X141256853Y-85387231D01*
X141264368Y-85396814D01*
X141306830Y-85435634D01*
X141356638Y-85460077D01*
X141413793Y-85470141D01*
X141426106Y-85470429D01*
X141482412Y-85463628D01*
X141534970Y-85440912D01*
X141559633Y-85422069D01*
X141594417Y-85378267D01*
X141616611Y-85325239D01*
X141627875Y-85272690D01*
G37*
G36*
X142259266Y-84743489D02*
G01*
X142314953Y-84754993D01*
X142366389Y-84774167D01*
X142413575Y-84801011D01*
X142456510Y-84835524D01*
X142469877Y-84848733D01*
X142505578Y-84892465D01*
X142533892Y-84942053D01*
X142554819Y-84997497D01*
X142568361Y-85058797D01*
X142574003Y-85114354D01*
X142574926Y-85149640D01*
X142573292Y-85205641D01*
X142567255Y-85265079D01*
X142556770Y-85318166D01*
X142539340Y-85371060D01*
X142528447Y-85394396D01*
X142498944Y-85441424D01*
X142462726Y-85482162D01*
X142419792Y-85516609D01*
X142393039Y-85533028D01*
X142341871Y-85556795D01*
X142288110Y-85572784D01*
X142231757Y-85580994D01*
X142199330Y-85582194D01*
X142138426Y-85578378D01*
X142082056Y-85566931D01*
X142030220Y-85547851D01*
X141982918Y-85521140D01*
X141940150Y-85486796D01*
X141926901Y-85473653D01*
X141891566Y-85429587D01*
X141863542Y-85378796D01*
X141842828Y-85321281D01*
X141831151Y-85268214D01*
X141824552Y-85210476D01*
X141822927Y-85160924D01*
X141822937Y-85160655D01*
X141962903Y-85160655D01*
X141965264Y-85216150D01*
X141973988Y-85273970D01*
X141991829Y-85330919D01*
X142018066Y-85378128D01*
X142030069Y-85393321D01*
X142070613Y-85430595D01*
X142122143Y-85457703D01*
X142180494Y-85469751D01*
X142199330Y-85470429D01*
X142253605Y-85464287D01*
X142307580Y-85443056D01*
X142354890Y-85406660D01*
X142367784Y-85392784D01*
X142400252Y-85342669D01*
X142420192Y-85287311D01*
X142430753Y-85230526D01*
X142434688Y-85175652D01*
X142434951Y-85156088D01*
X142432570Y-85102338D01*
X142423777Y-85046124D01*
X142405793Y-84990442D01*
X142375445Y-84938720D01*
X142367247Y-84928796D01*
X142326700Y-84891392D01*
X142275517Y-84864190D01*
X142217879Y-84852100D01*
X142199330Y-84851420D01*
X142144665Y-84857498D01*
X142090407Y-84878508D01*
X142042970Y-84914526D01*
X142030069Y-84928258D01*
X141997601Y-84977707D01*
X141977661Y-85032116D01*
X141967100Y-85087796D01*
X141963165Y-85141518D01*
X141962903Y-85160655D01*
X141822937Y-85160655D01*
X141824866Y-85106784D01*
X141832745Y-85044196D01*
X141846685Y-84987263D01*
X141866686Y-84935984D01*
X141898686Y-84881913D01*
X141939415Y-84835984D01*
X141947051Y-84829120D01*
X141994477Y-84794260D01*
X142046249Y-84767962D01*
X142102366Y-84750226D01*
X142162829Y-84741052D01*
X142199330Y-84739654D01*
X142259266Y-84743489D01*
G37*
G36*
X142730216Y-85565000D02*
G01*
X142730216Y-84756849D01*
X142851922Y-84756849D01*
X142851922Y-84868614D01*
X142886607Y-84825188D01*
X142929539Y-84789211D01*
X142952135Y-84775118D01*
X143001704Y-84753507D01*
X143056109Y-84741871D01*
X143095066Y-84739654D01*
X143152579Y-84743972D01*
X143206632Y-84758530D01*
X143241221Y-84776193D01*
X143284814Y-84813769D01*
X143315448Y-84862557D01*
X143321821Y-84878555D01*
X143359508Y-84831350D01*
X143401237Y-84793912D01*
X143455031Y-84762578D01*
X143514327Y-84744537D01*
X143569532Y-84739654D01*
X143625851Y-84743818D01*
X143680941Y-84758459D01*
X143731883Y-84787089D01*
X143753300Y-84806284D01*
X143787162Y-84854791D01*
X143806914Y-84910471D01*
X143815944Y-84969527D01*
X143817512Y-85011008D01*
X143817512Y-85565000D01*
X143682103Y-85565000D01*
X143682103Y-85054801D01*
X143680252Y-84999476D01*
X143672024Y-84946045D01*
X143668939Y-84936318D01*
X143638772Y-84891536D01*
X143620847Y-84878018D01*
X143570152Y-84858353D01*
X143539441Y-84855718D01*
X143484655Y-84862449D01*
X143432636Y-84885143D01*
X143398928Y-84912676D01*
X143367112Y-84959745D01*
X143349649Y-85016585D01*
X143343537Y-85071691D01*
X143343046Y-85094563D01*
X143343046Y-85565000D01*
X143206831Y-85565000D01*
X143206831Y-85038681D01*
X143202895Y-84981277D01*
X143188092Y-84927352D01*
X143173517Y-84901660D01*
X143129858Y-84867204D01*
X143074246Y-84855898D01*
X143064975Y-84855718D01*
X143009630Y-84863375D01*
X142958583Y-84886346D01*
X142916604Y-84923825D01*
X142889326Y-84971894D01*
X142887923Y-84975544D01*
X142873833Y-85031734D01*
X142867883Y-85086663D01*
X142866161Y-85144804D01*
X142866161Y-85565000D01*
X142730216Y-85565000D01*
G37*
G36*
X144050715Y-85565000D02*
G01*
X144050715Y-85410247D01*
X144205736Y-85410247D01*
X144205736Y-85565000D01*
X144050715Y-85565000D01*
G37*
G36*
X144575153Y-84847658D02*
G01*
X144615160Y-84805575D01*
X144659717Y-84773827D01*
X144716213Y-84750201D01*
X144770523Y-84740603D01*
X144795191Y-84739654D01*
X144849508Y-84743886D01*
X144905879Y-84758020D01*
X144935167Y-84769745D01*
X144985009Y-84798010D01*
X145027136Y-84834346D01*
X145043977Y-84853838D01*
X145075626Y-84901657D01*
X145099409Y-84952410D01*
X145110875Y-84984947D01*
X145124642Y-85038859D01*
X145132694Y-85095311D01*
X145135055Y-85148834D01*
X145132563Y-85211270D01*
X145125085Y-85269115D01*
X145112623Y-85322368D01*
X145091087Y-85380212D01*
X145062374Y-85431443D01*
X145032962Y-85469085D01*
X144993332Y-85507525D01*
X144943445Y-85542319D01*
X144889624Y-85566288D01*
X144831868Y-85579433D01*
X144788206Y-85582194D01*
X144729062Y-85576525D01*
X144675755Y-85559516D01*
X144628285Y-85531168D01*
X144586651Y-85491481D01*
X144565481Y-85463712D01*
X144565481Y-85565000D01*
X144439207Y-85565000D01*
X144439207Y-85154745D01*
X144563869Y-85154745D01*
X144565746Y-85214478D01*
X144572488Y-85273299D01*
X144585933Y-85327431D01*
X144603094Y-85364842D01*
X144638038Y-85411036D01*
X144684133Y-85447229D01*
X144737412Y-85466717D01*
X144776922Y-85470429D01*
X144830309Y-85462820D01*
X144878974Y-85439994D01*
X144922915Y-85401950D01*
X144931137Y-85392515D01*
X144962566Y-85342632D01*
X144981868Y-85288122D01*
X144992091Y-85232574D01*
X144996091Y-85169699D01*
X144996154Y-85160118D01*
X144993963Y-85103695D01*
X144985867Y-85045245D01*
X144969311Y-84988175D01*
X144941372Y-84936374D01*
X144933824Y-84926646D01*
X144892322Y-84886976D01*
X144840791Y-84860309D01*
X144783101Y-84851420D01*
X144729714Y-84859028D01*
X144681050Y-84881855D01*
X144637108Y-84919898D01*
X144628886Y-84929333D01*
X144597457Y-84978664D01*
X144578155Y-85031755D01*
X144567933Y-85085345D01*
X144563932Y-85145594D01*
X144563869Y-85154745D01*
X144439207Y-85154745D01*
X144439207Y-84447344D01*
X144575153Y-84447344D01*
X144575153Y-84847658D01*
G37*
G36*
X145294912Y-85565000D02*
G01*
X145294912Y-84756849D01*
X145417424Y-84756849D01*
X145417424Y-84880704D01*
X145445934Y-84832549D01*
X145480877Y-84787127D01*
X145503667Y-84767058D01*
X145553726Y-84744177D01*
X145591252Y-84739654D01*
X145647490Y-84746926D01*
X145700031Y-84766547D01*
X145730959Y-84783715D01*
X145684211Y-84910795D01*
X145634239Y-84888831D01*
X145584267Y-84881510D01*
X145529665Y-84893197D01*
X145504204Y-84908646D01*
X145467850Y-84950415D01*
X145453695Y-84983335D01*
X145439778Y-85039869D01*
X145432664Y-85095076D01*
X145430858Y-85142655D01*
X145430858Y-85565000D01*
X145294912Y-85565000D01*
G37*
G36*
X133413377Y-87413000D02*
G01*
X133413377Y-86295344D01*
X133560069Y-86295344D01*
X133560069Y-87284039D01*
X134105464Y-87284039D01*
X134105464Y-87413000D01*
X133413377Y-87413000D01*
G37*
G36*
X134644165Y-86591489D02*
G01*
X134699852Y-86602993D01*
X134751288Y-86622167D01*
X134798474Y-86649011D01*
X134841409Y-86683524D01*
X134854776Y-86696733D01*
X134890476Y-86740465D01*
X134918790Y-86790053D01*
X134939718Y-86845497D01*
X134953259Y-86906797D01*
X134958902Y-86962354D01*
X134959825Y-86997640D01*
X134958191Y-87053641D01*
X134952154Y-87113079D01*
X134941669Y-87166166D01*
X134924239Y-87219060D01*
X134913346Y-87242396D01*
X134883843Y-87289424D01*
X134847625Y-87330162D01*
X134804691Y-87364609D01*
X134777937Y-87381028D01*
X134726770Y-87404795D01*
X134673009Y-87420784D01*
X134616656Y-87428994D01*
X134584228Y-87430194D01*
X134523325Y-87426378D01*
X134466955Y-87414931D01*
X134415119Y-87395851D01*
X134367817Y-87369140D01*
X134325049Y-87334796D01*
X134311800Y-87321653D01*
X134276465Y-87277587D01*
X134248441Y-87226796D01*
X134227727Y-87169281D01*
X134216050Y-87116214D01*
X134209450Y-87058476D01*
X134207826Y-87008924D01*
X134207836Y-87008655D01*
X134347801Y-87008655D01*
X134350163Y-87064150D01*
X134358886Y-87121970D01*
X134376728Y-87178919D01*
X134402965Y-87226128D01*
X134414968Y-87241321D01*
X134455512Y-87278595D01*
X134507042Y-87305703D01*
X134565393Y-87317751D01*
X134584228Y-87318429D01*
X134638504Y-87312287D01*
X134692478Y-87291056D01*
X134739789Y-87254660D01*
X134752683Y-87240784D01*
X134785151Y-87190669D01*
X134805091Y-87135311D01*
X134815652Y-87078526D01*
X134819587Y-87023652D01*
X134819849Y-87004088D01*
X134817469Y-86950338D01*
X134808676Y-86894124D01*
X134790692Y-86838442D01*
X134760344Y-86786720D01*
X134752145Y-86776796D01*
X134711599Y-86739392D01*
X134660416Y-86712190D01*
X134602778Y-86700100D01*
X134584228Y-86699420D01*
X134529564Y-86705498D01*
X134475305Y-86726508D01*
X134427869Y-86762526D01*
X134414968Y-86776258D01*
X134382500Y-86825707D01*
X134362560Y-86880116D01*
X134351999Y-86935796D01*
X134348064Y-86989518D01*
X134347801Y-87008655D01*
X134207836Y-87008655D01*
X134209765Y-86954784D01*
X134217644Y-86892196D01*
X134231584Y-86835263D01*
X134251584Y-86783984D01*
X134283585Y-86729913D01*
X134324313Y-86683984D01*
X134331950Y-86677120D01*
X134379376Y-86642260D01*
X134431148Y-86615962D01*
X134487265Y-86598226D01*
X134547727Y-86589052D01*
X134584228Y-86587654D01*
X134644165Y-86591489D01*
G37*
G36*
X135114309Y-86450096D02*
G01*
X135114309Y-86295344D01*
X135250254Y-86295344D01*
X135250254Y-86450096D01*
X135114309Y-86450096D01*
G37*
G36*
X134942093Y-87725728D02*
G01*
X134967616Y-87612888D01*
X135020766Y-87623120D01*
X135031828Y-87623635D01*
X135083941Y-87606580D01*
X135093890Y-87595693D01*
X135109822Y-87542633D01*
X135113990Y-87483088D01*
X135114309Y-87456524D01*
X135114309Y-86604849D01*
X135250254Y-86604849D01*
X135250254Y-87456255D01*
X135248416Y-87517053D01*
X135241812Y-87575959D01*
X135228643Y-87628739D01*
X135211835Y-87663666D01*
X135174757Y-87703761D01*
X135124980Y-87729007D01*
X135069323Y-87739030D01*
X135048485Y-87739699D01*
X134994349Y-87736206D01*
X134942093Y-87725728D01*
G37*
G36*
X135850877Y-86589588D02*
G01*
X135904516Y-86596273D01*
X135958977Y-86610599D01*
X135963028Y-86612103D01*
X136012682Y-86635677D01*
X136055416Y-86670802D01*
X136057330Y-86673090D01*
X136085704Y-86720704D01*
X136099780Y-86766318D01*
X136105211Y-86823377D01*
X136106470Y-86881157D01*
X136106496Y-86892323D01*
X136106496Y-87074748D01*
X136106706Y-87130934D01*
X136107512Y-87189319D01*
X136109217Y-87244971D01*
X136113079Y-87301192D01*
X136115094Y-87316011D01*
X136129291Y-87368540D01*
X136149752Y-87413000D01*
X136007627Y-87413000D01*
X135988595Y-87359444D01*
X135980491Y-87311443D01*
X135938450Y-87344998D01*
X135892735Y-87375202D01*
X135843660Y-87399820D01*
X135834874Y-87403327D01*
X135781048Y-87419699D01*
X135724351Y-87428515D01*
X135684958Y-87430194D01*
X135630045Y-87427070D01*
X135574435Y-87415849D01*
X135520987Y-87393471D01*
X135481577Y-87364908D01*
X135444173Y-87320562D01*
X135420623Y-87269132D01*
X135410926Y-87210619D01*
X135410648Y-87198066D01*
X135411121Y-87193767D01*
X135555729Y-87193767D01*
X135567330Y-87247340D01*
X135596835Y-87285920D01*
X135643947Y-87312339D01*
X135698244Y-87322152D01*
X135717466Y-87322727D01*
X135774012Y-87317854D01*
X135829643Y-87301574D01*
X135857173Y-87288069D01*
X135901579Y-87255479D01*
X135937400Y-87210960D01*
X135947177Y-87192692D01*
X135962990Y-87139318D01*
X135968670Y-87082508D01*
X135969207Y-87055135D01*
X135969207Y-87004625D01*
X135915647Y-87022398D01*
X135862409Y-87035370D01*
X135808250Y-87045811D01*
X135747020Y-87055404D01*
X135691028Y-87065088D01*
X135637765Y-87079294D01*
X135628269Y-87083076D01*
X135583627Y-87115695D01*
X135574535Y-87127944D01*
X135556390Y-87180402D01*
X135555729Y-87193767D01*
X135411121Y-87193767D01*
X135416552Y-87144452D01*
X135435862Y-87092339D01*
X135437515Y-87089256D01*
X135468479Y-87044791D01*
X135507637Y-87010267D01*
X135556990Y-86982676D01*
X135605701Y-86965131D01*
X135659760Y-86953941D01*
X135716652Y-86945690D01*
X135726601Y-86944444D01*
X135785310Y-86936724D01*
X135846092Y-86927049D01*
X135905388Y-86915110D01*
X135959129Y-86900555D01*
X135969207Y-86897159D01*
X135969745Y-86861695D01*
X135964342Y-86806672D01*
X135942393Y-86757128D01*
X135931325Y-86745362D01*
X135885094Y-86717366D01*
X135830169Y-86703054D01*
X135776304Y-86699420D01*
X135721264Y-86702568D01*
X135668169Y-86714658D01*
X135634717Y-86731660D01*
X135597093Y-86772747D01*
X135572890Y-86825928D01*
X135567013Y-86845575D01*
X135434023Y-86827305D01*
X135449313Y-86774193D01*
X135472221Y-86724869D01*
X135493667Y-86693778D01*
X135533577Y-86656204D01*
X135581200Y-86628447D01*
X135613761Y-86615327D01*
X135670833Y-86599572D01*
X135727841Y-86590924D01*
X135783320Y-86587762D01*
X135796186Y-86587654D01*
X135850877Y-86589588D01*
G37*
G36*
X136351789Y-87413000D02*
G01*
X136351789Y-87258247D01*
X136506810Y-87258247D01*
X136506810Y-87413000D01*
X136351789Y-87413000D01*
G37*
G36*
X136766074Y-87413000D02*
G01*
X136766074Y-86295344D01*
X137513237Y-86295344D01*
X137513237Y-86424304D01*
X136912498Y-86424304D01*
X136912498Y-86776796D01*
X137432369Y-86776796D01*
X137432369Y-86905756D01*
X136912498Y-86905756D01*
X136912498Y-87413000D01*
X136766074Y-87413000D01*
G37*
G36*
X137679811Y-87413000D02*
G01*
X137679811Y-86604849D01*
X137802323Y-86604849D01*
X137802323Y-86728704D01*
X137830832Y-86680549D01*
X137865776Y-86635127D01*
X137888565Y-86615058D01*
X137938625Y-86592177D01*
X137976151Y-86587654D01*
X138032388Y-86594926D01*
X138084930Y-86614547D01*
X138115858Y-86631715D01*
X138069110Y-86758795D01*
X138019138Y-86736831D01*
X137969166Y-86729510D01*
X137914564Y-86741197D01*
X137889103Y-86756646D01*
X137852749Y-86798415D01*
X137838593Y-86831335D01*
X137824677Y-86887869D01*
X137817563Y-86943076D01*
X137815757Y-86990655D01*
X137815757Y-87413000D01*
X137679811Y-87413000D01*
G37*
G36*
X138194846Y-86450096D02*
G01*
X138194846Y-86295344D01*
X138330792Y-86295344D01*
X138330792Y-86450096D01*
X138194846Y-86450096D01*
G37*
G36*
X138194846Y-87413000D02*
G01*
X138194846Y-86604849D01*
X138330792Y-86604849D01*
X138330792Y-87413000D01*
X138194846Y-87413000D01*
G37*
G36*
X138832662Y-87288338D02*
G01*
X138852274Y-87413000D01*
X138797869Y-87425896D01*
X138749644Y-87430194D01*
X138694893Y-87426292D01*
X138642604Y-87410777D01*
X138634654Y-87406551D01*
X138593053Y-87370890D01*
X138577159Y-87343952D01*
X138565396Y-87288850D01*
X138561555Y-87231192D01*
X138560771Y-87180871D01*
X138560771Y-86712316D01*
X138460826Y-86712316D01*
X138460826Y-86604849D01*
X138560771Y-86604849D01*
X138560771Y-86409796D01*
X138695910Y-86329734D01*
X138695910Y-86604849D01*
X138832662Y-86604849D01*
X138832662Y-86712316D01*
X138695910Y-86712316D01*
X138695910Y-87191886D01*
X138698373Y-87247654D01*
X138702896Y-87268457D01*
X138726270Y-87295592D01*
X138773018Y-87305533D01*
X138825837Y-87291411D01*
X138832662Y-87288338D01*
G37*
G36*
X138891769Y-87413000D02*
G01*
X138891769Y-87303652D01*
X139402505Y-86712047D01*
X139345104Y-86714647D01*
X139288060Y-86716253D01*
X139249096Y-86716614D01*
X138921859Y-86716614D01*
X138921859Y-86604849D01*
X139577676Y-86604849D01*
X139577676Y-86694852D01*
X139143241Y-87209618D01*
X139059417Y-87303652D01*
X139115407Y-87300110D01*
X139169193Y-87297880D01*
X139225811Y-87296942D01*
X139230826Y-87296935D01*
X139601856Y-87296935D01*
X139601856Y-87413000D01*
X138891769Y-87413000D01*
G37*
G36*
X140120623Y-86591593D02*
G01*
X140174738Y-86603409D01*
X140232620Y-86627151D01*
X140284845Y-86661614D01*
X140325108Y-86699688D01*
X140359804Y-86744903D01*
X140387321Y-86796522D01*
X140407660Y-86854544D01*
X140419125Y-86907789D01*
X140425606Y-86965480D01*
X140427201Y-87014835D01*
X140426664Y-87051911D01*
X139828073Y-87051911D01*
X139834219Y-87105556D01*
X139848231Y-87159780D01*
X139872907Y-87211751D01*
X139902763Y-87249919D01*
X139948137Y-87286047D01*
X139999966Y-87308794D01*
X140058249Y-87318161D01*
X140070680Y-87318429D01*
X140127773Y-87311999D01*
X140181226Y-87290695D01*
X140198297Y-87279472D01*
X140237664Y-87240149D01*
X140267549Y-87190233D01*
X140282121Y-87155079D01*
X140422903Y-87172274D01*
X140405615Y-87223250D01*
X140379214Y-87275086D01*
X140345727Y-87320071D01*
X140305154Y-87358205D01*
X140299584Y-87362490D01*
X140251476Y-87392111D01*
X140197155Y-87413268D01*
X140144527Y-87424839D01*
X140087143Y-87429930D01*
X140069874Y-87430194D01*
X140006442Y-87426369D01*
X139948130Y-87414893D01*
X139894937Y-87395766D01*
X139846863Y-87368988D01*
X139803909Y-87334560D01*
X139790729Y-87321384D01*
X139755668Y-87277400D01*
X139727861Y-87227258D01*
X139707308Y-87170958D01*
X139694009Y-87108499D01*
X139688467Y-87051746D01*
X139687561Y-87015641D01*
X139690106Y-86954308D01*
X139692007Y-86940145D01*
X139835596Y-86940145D01*
X140283733Y-86940145D01*
X140275981Y-86884810D01*
X140259406Y-86828607D01*
X140232418Y-86781632D01*
X140192806Y-86741891D01*
X140141665Y-86712988D01*
X140089222Y-86700704D01*
X140063963Y-86699420D01*
X140008273Y-86705821D01*
X139953740Y-86727652D01*
X139910281Y-86760941D01*
X139906256Y-86764974D01*
X139871995Y-86810249D01*
X139848807Y-86864129D01*
X139837404Y-86919980D01*
X139835596Y-86940145D01*
X139692007Y-86940145D01*
X139697741Y-86897422D01*
X139710465Y-86844983D01*
X139732454Y-86787927D01*
X139761773Y-86737275D01*
X139791803Y-86699957D01*
X139833076Y-86661792D01*
X139878713Y-86631522D01*
X139928713Y-86609150D01*
X139983078Y-86594673D01*
X140041806Y-86588093D01*
X140062351Y-86587654D01*
X140120623Y-86591593D01*
G37*
G36*
X140589476Y-87413000D02*
G01*
X140589476Y-86604849D01*
X140711720Y-86604849D01*
X140711720Y-86718226D01*
X140747634Y-86673852D01*
X140789083Y-86638659D01*
X140844436Y-86609204D01*
X140897878Y-86593902D01*
X140956855Y-86587782D01*
X140967222Y-86587654D01*
X141024210Y-86591999D01*
X141077296Y-86605036D01*
X141100481Y-86613983D01*
X141147931Y-86639975D01*
X141187677Y-86677488D01*
X141191559Y-86682762D01*
X141218660Y-86732414D01*
X141234009Y-86783781D01*
X141239878Y-86840181D01*
X141241465Y-86899441D01*
X141241531Y-86916771D01*
X141241531Y-87413000D01*
X141105586Y-87413000D01*
X141105586Y-86920264D01*
X141103357Y-86863365D01*
X141094301Y-86809031D01*
X141089734Y-86795065D01*
X141060265Y-86749623D01*
X141033314Y-86728704D01*
X140983471Y-86708501D01*
X140938475Y-86703718D01*
X140881608Y-86710290D01*
X140830328Y-86730005D01*
X140788558Y-86759332D01*
X140755264Y-86803878D01*
X140735842Y-86860703D01*
X140727641Y-86915861D01*
X140725422Y-86970773D01*
X140725422Y-87413000D01*
X140589476Y-87413000D01*
G37*
G36*
X141457271Y-87413000D02*
G01*
X141457271Y-86295344D01*
X141603963Y-86295344D01*
X141603963Y-87284039D01*
X142149357Y-87284039D01*
X142149357Y-87413000D01*
X141457271Y-87413000D01*
G37*
G36*
X142696515Y-86589588D02*
G01*
X142750154Y-86596273D01*
X142804616Y-86610599D01*
X142808667Y-86612103D01*
X142858321Y-86635677D01*
X142901055Y-86670802D01*
X142902969Y-86673090D01*
X142931343Y-86720704D01*
X142945418Y-86766318D01*
X142950849Y-86823377D01*
X142952109Y-86881157D01*
X142952135Y-86892323D01*
X142952135Y-87074748D01*
X142952345Y-87130934D01*
X142953151Y-87189319D01*
X142954855Y-87244971D01*
X142958717Y-87301192D01*
X142960732Y-87316011D01*
X142974929Y-87368540D01*
X142995390Y-87413000D01*
X142853265Y-87413000D01*
X142834233Y-87359444D01*
X142826130Y-87311443D01*
X142784089Y-87344998D01*
X142738373Y-87375202D01*
X142689299Y-87399820D01*
X142680512Y-87403327D01*
X142626687Y-87419699D01*
X142569989Y-87428515D01*
X142530596Y-87430194D01*
X142475684Y-87427070D01*
X142420074Y-87415849D01*
X142366625Y-87393471D01*
X142327215Y-87364908D01*
X142289812Y-87320562D01*
X142266261Y-87269132D01*
X142256564Y-87210619D01*
X142256287Y-87198066D01*
X142256760Y-87193767D01*
X142401367Y-87193767D01*
X142412968Y-87247340D01*
X142442473Y-87285920D01*
X142489586Y-87312339D01*
X142543883Y-87322152D01*
X142563105Y-87322727D01*
X142619651Y-87317854D01*
X142675281Y-87301574D01*
X142702812Y-87288069D01*
X142747217Y-87255479D01*
X142783038Y-87210960D01*
X142792815Y-87192692D01*
X142808628Y-87139318D01*
X142814308Y-87082508D01*
X142814846Y-87055135D01*
X142814846Y-87004625D01*
X142761286Y-87022398D01*
X142708048Y-87035370D01*
X142653888Y-87045811D01*
X142592658Y-87055404D01*
X142536666Y-87065088D01*
X142483403Y-87079294D01*
X142473907Y-87083076D01*
X142429265Y-87115695D01*
X142420174Y-87127944D01*
X142402028Y-87180402D01*
X142401367Y-87193767D01*
X142256760Y-87193767D01*
X142262190Y-87144452D01*
X142281501Y-87092339D01*
X142283154Y-87089256D01*
X142314118Y-87044791D01*
X142353276Y-87010267D01*
X142402629Y-86982676D01*
X142451339Y-86965131D01*
X142505398Y-86953941D01*
X142562290Y-86945690D01*
X142572240Y-86944444D01*
X142630949Y-86936724D01*
X142691731Y-86927049D01*
X142751026Y-86915110D01*
X142804768Y-86900555D01*
X142814846Y-86897159D01*
X142815383Y-86861695D01*
X142809981Y-86806672D01*
X142788032Y-86757128D01*
X142776964Y-86745362D01*
X142730732Y-86717366D01*
X142675807Y-86703054D01*
X142621943Y-86699420D01*
X142566903Y-86702568D01*
X142513808Y-86714658D01*
X142480355Y-86731660D01*
X142442732Y-86772747D01*
X142418528Y-86825928D01*
X142412651Y-86845575D01*
X142279661Y-86827305D01*
X142294951Y-86774193D01*
X142317860Y-86724869D01*
X142339305Y-86693778D01*
X142379215Y-86656204D01*
X142426838Y-86628447D01*
X142459399Y-86615327D01*
X142516471Y-86599572D01*
X142573479Y-86590924D01*
X142628959Y-86587762D01*
X142641824Y-86587654D01*
X142696515Y-86589588D01*
G37*
G36*
X143294148Y-86695658D02*
G01*
X143334155Y-86653575D01*
X143378712Y-86621827D01*
X143435208Y-86598201D01*
X143489518Y-86588603D01*
X143514187Y-86587654D01*
X143568503Y-86591886D01*
X143624874Y-86606020D01*
X143654162Y-86617745D01*
X143704004Y-86646010D01*
X143746131Y-86682346D01*
X143762972Y-86701838D01*
X143794621Y-86749657D01*
X143818405Y-86800410D01*
X143829870Y-86832947D01*
X143843637Y-86886859D01*
X143851689Y-86943311D01*
X143854050Y-86996834D01*
X143851558Y-87059270D01*
X143844080Y-87117115D01*
X143831618Y-87170368D01*
X143810082Y-87228212D01*
X143781369Y-87279443D01*
X143751957Y-87317085D01*
X143712327Y-87355525D01*
X143662440Y-87390319D01*
X143608619Y-87414288D01*
X143550864Y-87427433D01*
X143507201Y-87430194D01*
X143448057Y-87424525D01*
X143394750Y-87407516D01*
X143347280Y-87379168D01*
X143305646Y-87339481D01*
X143284476Y-87311712D01*
X143284476Y-87413000D01*
X143158203Y-87413000D01*
X143158203Y-87002745D01*
X143282864Y-87002745D01*
X143284741Y-87062478D01*
X143291483Y-87121299D01*
X143304928Y-87175431D01*
X143322090Y-87212842D01*
X143357033Y-87259036D01*
X143403129Y-87295229D01*
X143456407Y-87314717D01*
X143495917Y-87318429D01*
X143549304Y-87310820D01*
X143597969Y-87287994D01*
X143641910Y-87249950D01*
X143650132Y-87240515D01*
X143681561Y-87190632D01*
X143700863Y-87136122D01*
X143711086Y-87080574D01*
X143715086Y-87017699D01*
X143715150Y-87008118D01*
X143712958Y-86951695D01*
X143704863Y-86893245D01*
X143688306Y-86836175D01*
X143660367Y-86784374D01*
X143652819Y-86774646D01*
X143611317Y-86734976D01*
X143559786Y-86708309D01*
X143502096Y-86699420D01*
X143448709Y-86707028D01*
X143400045Y-86729855D01*
X143356103Y-86767898D01*
X143347882Y-86777333D01*
X143316452Y-86826664D01*
X143297150Y-86879755D01*
X143286928Y-86933345D01*
X143282928Y-86993594D01*
X143282864Y-87002745D01*
X143158203Y-87002745D01*
X143158203Y-86295344D01*
X143294148Y-86295344D01*
X143294148Y-86695658D01*
G37*
G36*
X144053939Y-87413000D02*
G01*
X144053939Y-87258247D01*
X144208960Y-87258247D01*
X144208960Y-87413000D01*
X144053939Y-87413000D01*
G37*
G36*
X144966870Y-87120690D02*
G01*
X145100666Y-87138153D01*
X145087762Y-87195258D01*
X145068327Y-87246681D01*
X145038119Y-87298492D01*
X144999381Y-87342881D01*
X144988363Y-87352818D01*
X144940641Y-87386670D01*
X144887747Y-87410850D01*
X144829682Y-87425358D01*
X144774632Y-87430119D01*
X144766444Y-87430194D01*
X144706951Y-87426397D01*
X144651992Y-87415006D01*
X144601566Y-87396021D01*
X144548467Y-87364274D01*
X144507865Y-87328835D01*
X144501538Y-87322190D01*
X144467573Y-87278291D01*
X144440635Y-87227800D01*
X144420724Y-87170715D01*
X144409500Y-87118109D01*
X144403156Y-87060924D01*
X144401594Y-87011879D01*
X144403651Y-86956323D01*
X144411039Y-86896670D01*
X144423801Y-86841115D01*
X144441936Y-86789657D01*
X144444581Y-86783512D01*
X144472440Y-86732241D01*
X144507354Y-86688747D01*
X144549325Y-86653032D01*
X144575690Y-86636551D01*
X144626471Y-86612915D01*
X144679674Y-86597013D01*
X144735300Y-86588848D01*
X144767250Y-86587654D01*
X144822205Y-86590830D01*
X144879405Y-86602235D01*
X144930629Y-86621936D01*
X144981109Y-86654015D01*
X145023219Y-86695742D01*
X145055850Y-86746267D01*
X145076898Y-86798565D01*
X145087770Y-86842351D01*
X144955586Y-86862769D01*
X144939043Y-86811596D01*
X144910651Y-86763480D01*
X144888419Y-86740526D01*
X144839158Y-86711021D01*
X144785191Y-86699781D01*
X144772623Y-86699420D01*
X144717803Y-86705285D01*
X144664069Y-86725561D01*
X144617892Y-86760320D01*
X144605512Y-86773572D01*
X144574473Y-86822104D01*
X144555410Y-86876698D01*
X144545314Y-86933311D01*
X144541552Y-86988406D01*
X144541301Y-87008118D01*
X144543483Y-87066046D01*
X144551544Y-87125726D01*
X144568029Y-87183511D01*
X144595848Y-87235231D01*
X144603363Y-87244814D01*
X144645825Y-87283634D01*
X144695633Y-87308077D01*
X144752788Y-87318141D01*
X144765101Y-87318429D01*
X144821407Y-87311628D01*
X144873965Y-87288912D01*
X144898628Y-87270069D01*
X144933412Y-87226267D01*
X144955606Y-87173239D01*
X144966870Y-87120690D01*
G37*
G36*
X145598262Y-86591489D02*
G01*
X145653948Y-86602993D01*
X145705384Y-86622167D01*
X145752570Y-86649011D01*
X145795505Y-86683524D01*
X145808872Y-86696733D01*
X145844573Y-86740465D01*
X145872887Y-86790053D01*
X145893814Y-86845497D01*
X145907356Y-86906797D01*
X145912998Y-86962354D01*
X145913921Y-86997640D01*
X145912287Y-87053641D01*
X145906250Y-87113079D01*
X145895765Y-87166166D01*
X145878336Y-87219060D01*
X145867442Y-87242396D01*
X145837939Y-87289424D01*
X145801721Y-87330162D01*
X145758788Y-87364609D01*
X145732034Y-87381028D01*
X145680866Y-87404795D01*
X145627106Y-87420784D01*
X145570752Y-87428994D01*
X145538325Y-87430194D01*
X145477421Y-87426378D01*
X145421051Y-87414931D01*
X145369216Y-87395851D01*
X145321913Y-87369140D01*
X145279145Y-87334796D01*
X145265896Y-87321653D01*
X145230561Y-87277587D01*
X145202537Y-87226796D01*
X145181823Y-87169281D01*
X145170147Y-87116214D01*
X145163547Y-87058476D01*
X145161922Y-87008924D01*
X145161932Y-87008655D01*
X145301898Y-87008655D01*
X145304259Y-87064150D01*
X145312983Y-87121970D01*
X145330824Y-87178919D01*
X145357061Y-87226128D01*
X145369064Y-87241321D01*
X145409608Y-87278595D01*
X145461138Y-87305703D01*
X145519489Y-87317751D01*
X145538325Y-87318429D01*
X145592600Y-87312287D01*
X145646575Y-87291056D01*
X145693885Y-87254660D01*
X145706779Y-87240784D01*
X145739247Y-87190669D01*
X145759187Y-87135311D01*
X145769748Y-87078526D01*
X145773683Y-87023652D01*
X145773946Y-87004088D01*
X145771566Y-86950338D01*
X145762772Y-86894124D01*
X145744788Y-86838442D01*
X145714440Y-86786720D01*
X145706242Y-86776796D01*
X145665695Y-86739392D01*
X145614512Y-86712190D01*
X145556875Y-86700100D01*
X145538325Y-86699420D01*
X145483660Y-86705498D01*
X145429402Y-86726508D01*
X145381965Y-86762526D01*
X145369064Y-86776258D01*
X145336596Y-86825707D01*
X145316656Y-86880116D01*
X145306096Y-86935796D01*
X145302160Y-86989518D01*
X145301898Y-87008655D01*
X145161932Y-87008655D01*
X145163861Y-86954784D01*
X145171740Y-86892196D01*
X145185680Y-86835263D01*
X145205681Y-86783984D01*
X145237681Y-86729913D01*
X145278410Y-86683984D01*
X145286046Y-86677120D01*
X145333473Y-86642260D01*
X145385244Y-86615962D01*
X145441361Y-86598226D01*
X145501824Y-86589052D01*
X145538325Y-86587654D01*
X145598262Y-86591489D01*
G37*
G36*
X146069211Y-87413000D02*
G01*
X146069211Y-86604849D01*
X146190917Y-86604849D01*
X146190917Y-86716614D01*
X146225602Y-86673188D01*
X146268534Y-86637211D01*
X146291130Y-86623118D01*
X146340699Y-86601507D01*
X146395104Y-86589871D01*
X146434061Y-86587654D01*
X146491575Y-86591972D01*
X146545627Y-86606530D01*
X146580216Y-86624193D01*
X146623809Y-86661769D01*
X146654444Y-86710557D01*
X146660816Y-86726555D01*
X146698503Y-86679350D01*
X146740232Y-86641912D01*
X146794026Y-86610578D01*
X146853322Y-86592537D01*
X146908527Y-86587654D01*
X146964846Y-86591818D01*
X147019936Y-86606459D01*
X147070878Y-86635089D01*
X147092295Y-86654284D01*
X147126157Y-86702791D01*
X147145909Y-86758471D01*
X147154939Y-86817527D01*
X147156507Y-86859008D01*
X147156507Y-87413000D01*
X147021099Y-87413000D01*
X147021099Y-86902801D01*
X147019247Y-86847476D01*
X147011019Y-86794045D01*
X147007934Y-86784318D01*
X146977767Y-86739536D01*
X146959842Y-86726018D01*
X146909147Y-86706353D01*
X146878436Y-86703718D01*
X146823650Y-86710449D01*
X146771631Y-86733143D01*
X146737923Y-86760676D01*
X146706107Y-86807745D01*
X146688644Y-86864585D01*
X146682532Y-86919691D01*
X146682041Y-86942563D01*
X146682041Y-87413000D01*
X146545826Y-87413000D01*
X146545826Y-86886681D01*
X146541890Y-86829277D01*
X146527087Y-86775352D01*
X146512512Y-86749660D01*
X146468853Y-86715204D01*
X146413241Y-86703898D01*
X146403970Y-86703718D01*
X146348625Y-86711375D01*
X146297578Y-86734346D01*
X146255599Y-86771825D01*
X146228321Y-86819894D01*
X146226919Y-86823544D01*
X146212828Y-86879734D01*
X146206878Y-86934663D01*
X146205157Y-86992804D01*
X146205157Y-87413000D01*
X146069211Y-87413000D01*
G37*
G36*
X147389710Y-87413000D02*
G01*
X147389710Y-87258247D01*
X147544731Y-87258247D01*
X147544731Y-87413000D01*
X147389710Y-87413000D01*
G37*
G36*
X147914148Y-86695658D02*
G01*
X147954155Y-86653575D01*
X147998712Y-86621827D01*
X148055208Y-86598201D01*
X148109518Y-86588603D01*
X148134187Y-86587654D01*
X148188503Y-86591886D01*
X148244874Y-86606020D01*
X148274162Y-86617745D01*
X148324004Y-86646010D01*
X148366131Y-86682346D01*
X148382972Y-86701838D01*
X148414621Y-86749657D01*
X148438405Y-86800410D01*
X148449870Y-86832947D01*
X148463637Y-86886859D01*
X148471689Y-86943311D01*
X148474050Y-86996834D01*
X148471558Y-87059270D01*
X148464080Y-87117115D01*
X148451618Y-87170368D01*
X148430082Y-87228212D01*
X148401369Y-87279443D01*
X148371957Y-87317085D01*
X148332327Y-87355525D01*
X148282440Y-87390319D01*
X148228619Y-87414288D01*
X148170864Y-87427433D01*
X148127201Y-87430194D01*
X148068057Y-87424525D01*
X148014750Y-87407516D01*
X147967280Y-87379168D01*
X147925646Y-87339481D01*
X147904476Y-87311712D01*
X147904476Y-87413000D01*
X147778203Y-87413000D01*
X147778203Y-87002745D01*
X147902864Y-87002745D01*
X147904741Y-87062478D01*
X147911483Y-87121299D01*
X147924928Y-87175431D01*
X147942090Y-87212842D01*
X147977033Y-87259036D01*
X148023129Y-87295229D01*
X148076407Y-87314717D01*
X148115917Y-87318429D01*
X148169304Y-87310820D01*
X148217969Y-87287994D01*
X148261910Y-87249950D01*
X148270132Y-87240515D01*
X148301561Y-87190632D01*
X148320863Y-87136122D01*
X148331086Y-87080574D01*
X148335086Y-87017699D01*
X148335150Y-87008118D01*
X148332958Y-86951695D01*
X148324863Y-86893245D01*
X148308306Y-86836175D01*
X148280367Y-86784374D01*
X148272819Y-86774646D01*
X148231317Y-86734976D01*
X148179786Y-86708309D01*
X148122096Y-86699420D01*
X148068709Y-86707028D01*
X148020045Y-86729855D01*
X147976103Y-86767898D01*
X147967882Y-86777333D01*
X147936452Y-86826664D01*
X147917150Y-86879755D01*
X147906928Y-86933345D01*
X147902928Y-86993594D01*
X147902864Y-87002745D01*
X147778203Y-87002745D01*
X147778203Y-86295344D01*
X147914148Y-86295344D01*
X147914148Y-86695658D01*
G37*
G36*
X148633907Y-87413000D02*
G01*
X148633907Y-86604849D01*
X148756420Y-86604849D01*
X148756420Y-86728704D01*
X148784929Y-86680549D01*
X148819873Y-86635127D01*
X148842662Y-86615058D01*
X148892721Y-86592177D01*
X148930247Y-86587654D01*
X148986485Y-86594926D01*
X149039026Y-86614547D01*
X149069954Y-86631715D01*
X149023206Y-86758795D01*
X148973234Y-86736831D01*
X148923262Y-86729510D01*
X148868660Y-86741197D01*
X148843199Y-86756646D01*
X148806845Y-86798415D01*
X148792690Y-86831335D01*
X148778774Y-86887869D01*
X148771659Y-86943076D01*
X148769853Y-86990655D01*
X148769853Y-87413000D01*
X148633907Y-87413000D01*
G37*
G36*
X104111628Y-83422083D02*
G01*
X104186174Y-83426090D01*
X104262438Y-83435579D01*
X104334723Y-83452407D01*
X104403802Y-83479850D01*
X104448918Y-83506653D01*
X104505103Y-83556174D01*
X104551614Y-83619601D01*
X104569818Y-83653565D01*
X104597948Y-83726861D01*
X104612328Y-83798756D01*
X104615980Y-83860928D01*
X104610107Y-83942878D01*
X104592488Y-84019148D01*
X104563124Y-84089739D01*
X104522013Y-84154649D01*
X104493248Y-84189190D01*
X104430103Y-84241580D01*
X104360938Y-84276245D01*
X104277888Y-84301455D01*
X104198073Y-84315242D01*
X104108616Y-84322464D01*
X104050314Y-84323646D01*
X103662700Y-84323646D01*
X103662700Y-84945000D01*
X103462665Y-84945000D01*
X103462665Y-84147791D01*
X103662700Y-84147791D01*
X104053244Y-84147791D01*
X104132653Y-84144267D01*
X104210225Y-84131610D01*
X104280688Y-84106369D01*
X104328384Y-84074152D01*
X104374690Y-84016468D01*
X104401774Y-83944672D01*
X104409717Y-83867156D01*
X104401796Y-83793166D01*
X104375549Y-83723763D01*
X104361723Y-83701559D01*
X104310311Y-83647211D01*
X104240564Y-83611777D01*
X104235694Y-83610334D01*
X104157884Y-83599757D01*
X104081861Y-83596991D01*
X104049214Y-83596779D01*
X103662700Y-83596779D01*
X103662700Y-84147791D01*
X103462665Y-84147791D01*
X103462665Y-83420924D01*
X104032728Y-83420924D01*
X104111628Y-83422083D01*
G37*
G36*
X104836531Y-84945000D02*
G01*
X104836531Y-83842976D01*
X105003593Y-83842976D01*
X105003593Y-84011870D01*
X105042469Y-83946203D01*
X105090120Y-83884264D01*
X105121196Y-83856898D01*
X105189460Y-83825696D01*
X105240631Y-83819528D01*
X105317319Y-83829445D01*
X105388966Y-83856201D01*
X105431140Y-83879612D01*
X105367393Y-84052903D01*
X105299249Y-84022952D01*
X105231106Y-84012969D01*
X105156648Y-84028905D01*
X105121929Y-84049972D01*
X105072355Y-84106930D01*
X105053053Y-84151821D01*
X105034076Y-84228912D01*
X105024375Y-84304195D01*
X105021912Y-84369075D01*
X105021912Y-84945000D01*
X104836531Y-84945000D01*
G37*
G36*
X106066376Y-83824899D02*
G01*
X106140170Y-83841012D01*
X106219100Y-83873387D01*
X106290316Y-83920383D01*
X106345219Y-83972302D01*
X106392532Y-84033959D01*
X106430056Y-84104348D01*
X106457790Y-84183470D01*
X106473425Y-84256075D01*
X106482262Y-84334745D01*
X106484438Y-84402048D01*
X106483705Y-84452606D01*
X105667445Y-84452606D01*
X105675825Y-84525758D01*
X105694933Y-84599701D01*
X105728582Y-84670570D01*
X105769295Y-84722616D01*
X105831169Y-84771882D01*
X105901844Y-84802902D01*
X105981321Y-84815674D01*
X105998272Y-84816039D01*
X106076127Y-84807272D01*
X106149017Y-84778220D01*
X106172295Y-84762916D01*
X106225978Y-84709294D01*
X106266731Y-84641227D01*
X106286601Y-84593290D01*
X106478576Y-84616737D01*
X106455002Y-84686250D01*
X106419001Y-84756936D01*
X106373337Y-84818279D01*
X106318010Y-84870280D01*
X106310415Y-84876123D01*
X106244813Y-84916515D01*
X106170738Y-84945366D01*
X106098974Y-84961144D01*
X106020722Y-84968086D01*
X105997173Y-84968447D01*
X105910676Y-84963230D01*
X105831159Y-84947581D01*
X105758623Y-84921499D01*
X105693068Y-84884984D01*
X105634494Y-84838037D01*
X105616521Y-84820069D01*
X105568710Y-84760091D01*
X105530792Y-84691716D01*
X105502765Y-84614943D01*
X105484630Y-84529771D01*
X105477073Y-84452381D01*
X105475837Y-84403147D01*
X105479307Y-84319511D01*
X105481899Y-84300198D01*
X105677704Y-84300198D01*
X106288799Y-84300198D01*
X106278228Y-84224741D01*
X106255626Y-84148100D01*
X106218824Y-84084043D01*
X106164808Y-84029851D01*
X106095070Y-83990438D01*
X106023557Y-83973688D01*
X105989113Y-83971936D01*
X105913171Y-83980666D01*
X105838809Y-84010434D01*
X105779547Y-84055829D01*
X105774057Y-84061329D01*
X105727339Y-84123067D01*
X105695718Y-84196540D01*
X105680169Y-84272700D01*
X105677704Y-84300198D01*
X105481899Y-84300198D01*
X105489719Y-84241939D01*
X105507071Y-84170432D01*
X105537056Y-84092628D01*
X105577035Y-84023557D01*
X105617986Y-83972669D01*
X105674268Y-83920625D01*
X105736499Y-83879349D01*
X105804682Y-83848840D01*
X105878815Y-83829100D01*
X105958898Y-83820127D01*
X105986915Y-83819528D01*
X106066376Y-83824899D01*
G37*
G36*
X106631350Y-84621866D02*
G01*
X106814898Y-84593290D01*
X106834167Y-84667015D01*
X106872483Y-84730954D01*
X106900628Y-84758520D01*
X106967329Y-84795762D01*
X107045322Y-84813287D01*
X107098098Y-84816039D01*
X107171571Y-84810923D01*
X107242737Y-84791277D01*
X107287875Y-84763649D01*
X107334311Y-84706313D01*
X107349790Y-84639818D01*
X107326123Y-84568148D01*
X107294836Y-84539801D01*
X107222402Y-84509505D01*
X107149945Y-84488110D01*
X107105425Y-84476420D01*
X107033306Y-84457538D01*
X106960301Y-84436746D01*
X106884058Y-84411971D01*
X106822592Y-84387027D01*
X106757119Y-84345371D01*
X106705736Y-84287096D01*
X106703157Y-84282979D01*
X106672657Y-84212821D01*
X106662491Y-84135701D01*
X106671900Y-84060847D01*
X106695830Y-83999780D01*
X106738180Y-83939316D01*
X106787055Y-83896099D01*
X106853401Y-83859806D01*
X106905024Y-83841877D01*
X106977426Y-83825836D01*
X107054496Y-83819616D01*
X107065125Y-83819528D01*
X107142613Y-83823106D01*
X107220659Y-83835306D01*
X107291172Y-83856165D01*
X107361948Y-83890225D01*
X107419370Y-83936507D01*
X107435153Y-83955450D01*
X107472333Y-84023520D01*
X107494138Y-84097622D01*
X107498900Y-84123244D01*
X107317550Y-84147791D01*
X107293645Y-84074060D01*
X107246109Y-84018464D01*
X107179761Y-83985068D01*
X107104939Y-83972663D01*
X107078681Y-83971936D01*
X106999434Y-83976958D01*
X106928105Y-83995841D01*
X106896231Y-84014434D01*
X106849319Y-84073282D01*
X106841643Y-84114085D01*
X106864357Y-84179298D01*
X106923743Y-84224018D01*
X106935432Y-84229124D01*
X107006598Y-84250863D01*
X107082629Y-84272186D01*
X107099197Y-84276751D01*
X107179572Y-84298920D01*
X107257476Y-84322024D01*
X107327327Y-84345170D01*
X107373604Y-84363213D01*
X107439356Y-84401493D01*
X107493166Y-84457055D01*
X107495969Y-84461032D01*
X107527788Y-84527981D01*
X107539910Y-84602814D01*
X107540300Y-84620401D01*
X107531351Y-84694493D01*
X107504505Y-84764957D01*
X107486078Y-84796256D01*
X107438885Y-84852601D01*
X107378092Y-84898540D01*
X107330006Y-84923384D01*
X107256782Y-84949040D01*
X107184654Y-84963122D01*
X107107231Y-84968403D01*
X107099197Y-84968447D01*
X107022806Y-84965381D01*
X106942701Y-84954056D01*
X106863046Y-84930895D01*
X106796075Y-84896835D01*
X106774232Y-84881252D01*
X106717753Y-84825334D01*
X106674026Y-84756084D01*
X106645861Y-84683338D01*
X106631350Y-84621866D01*
G37*
G36*
X107680617Y-84621866D02*
G01*
X107864166Y-84593290D01*
X107883434Y-84667015D01*
X107921750Y-84730954D01*
X107949895Y-84758520D01*
X108016596Y-84795762D01*
X108094589Y-84813287D01*
X108147365Y-84816039D01*
X108220838Y-84810923D01*
X108292005Y-84791277D01*
X108337142Y-84763649D01*
X108383579Y-84706313D01*
X108399057Y-84639818D01*
X108375390Y-84568148D01*
X108344103Y-84539801D01*
X108271670Y-84509505D01*
X108199213Y-84488110D01*
X108154692Y-84476420D01*
X108082573Y-84457538D01*
X108009569Y-84436746D01*
X107933325Y-84411971D01*
X107871859Y-84387027D01*
X107806386Y-84345371D01*
X107755003Y-84287096D01*
X107752424Y-84282979D01*
X107721925Y-84212821D01*
X107711758Y-84135701D01*
X107721167Y-84060847D01*
X107745097Y-83999780D01*
X107787448Y-83939316D01*
X107836322Y-83896099D01*
X107902668Y-83859806D01*
X107954291Y-83841877D01*
X108026693Y-83825836D01*
X108103764Y-83819616D01*
X108114392Y-83819528D01*
X108191880Y-83823106D01*
X108269926Y-83835306D01*
X108340439Y-83856165D01*
X108411215Y-83890225D01*
X108468637Y-83936507D01*
X108484420Y-83955450D01*
X108521601Y-84023520D01*
X108543405Y-84097622D01*
X108548168Y-84123244D01*
X108366817Y-84147791D01*
X108342912Y-84074060D01*
X108295376Y-84018464D01*
X108229028Y-83985068D01*
X108154206Y-83972663D01*
X108127948Y-83971936D01*
X108048702Y-83976958D01*
X107977372Y-83995841D01*
X107945498Y-84014434D01*
X107898587Y-84073282D01*
X107890910Y-84114085D01*
X107913625Y-84179298D01*
X107973010Y-84224018D01*
X107984699Y-84229124D01*
X108055865Y-84250863D01*
X108131896Y-84272186D01*
X108148464Y-84276751D01*
X108228839Y-84298920D01*
X108306743Y-84322024D01*
X108376595Y-84345170D01*
X108422871Y-84363213D01*
X108488623Y-84401493D01*
X108542433Y-84457055D01*
X108545237Y-84461032D01*
X108577056Y-84527981D01*
X108589177Y-84602814D01*
X108589567Y-84620401D01*
X108580618Y-84694493D01*
X108553772Y-84764957D01*
X108535345Y-84796256D01*
X108488153Y-84852601D01*
X108427359Y-84898540D01*
X108379274Y-84923384D01*
X108306049Y-84949040D01*
X108233921Y-84963122D01*
X108156498Y-84968403D01*
X108148464Y-84968447D01*
X108072073Y-84965381D01*
X107991968Y-84954056D01*
X107912313Y-84930895D01*
X107845343Y-84896835D01*
X107823499Y-84881252D01*
X107767020Y-84825334D01*
X107723293Y-84756084D01*
X107695129Y-84683338D01*
X107680617Y-84621866D01*
G37*
G36*
X108805355Y-83631950D02*
G01*
X108805355Y-83420924D01*
X108990736Y-83420924D01*
X108990736Y-83631950D01*
X108805355Y-83631950D01*
G37*
G36*
X108805355Y-84945000D02*
G01*
X108805355Y-83842976D01*
X108990736Y-83842976D01*
X108990736Y-84945000D01*
X108805355Y-84945000D01*
G37*
G36*
X109796037Y-83824758D02*
G01*
X109871973Y-83840446D01*
X109942114Y-83866592D01*
X110006458Y-83903197D01*
X110065006Y-83950260D01*
X110083234Y-83968272D01*
X110131916Y-84027907D01*
X110170526Y-84095527D01*
X110199064Y-84171132D01*
X110217529Y-84254723D01*
X110225223Y-84330483D01*
X110226482Y-84378600D01*
X110224254Y-84454966D01*
X110216022Y-84536017D01*
X110201724Y-84608408D01*
X110177956Y-84680536D01*
X110163101Y-84712358D01*
X110122871Y-84776488D01*
X110073482Y-84832039D01*
X110014936Y-84879012D01*
X109978454Y-84901402D01*
X109908680Y-84933811D01*
X109835370Y-84955614D01*
X109758525Y-84966810D01*
X109714305Y-84968447D01*
X109631255Y-84963243D01*
X109554387Y-84947633D01*
X109483702Y-84921615D01*
X109419199Y-84885191D01*
X109360878Y-84838359D01*
X109342812Y-84820436D01*
X109294628Y-84760346D01*
X109256413Y-84691086D01*
X109228167Y-84612656D01*
X109212244Y-84540291D01*
X109203244Y-84461559D01*
X109201029Y-84393988D01*
X109201042Y-84393621D01*
X109391905Y-84393621D01*
X109395125Y-84469296D01*
X109407021Y-84548140D01*
X109431350Y-84625798D01*
X109467127Y-84690175D01*
X109483496Y-84710893D01*
X109538783Y-84761720D01*
X109609051Y-84798686D01*
X109688620Y-84815115D01*
X109714305Y-84816039D01*
X109788317Y-84807664D01*
X109861919Y-84778713D01*
X109926433Y-84729082D01*
X109944016Y-84710160D01*
X109988291Y-84641822D01*
X110015482Y-84566334D01*
X110029882Y-84488899D01*
X110035249Y-84414070D01*
X110035607Y-84387393D01*
X110032361Y-84314097D01*
X110020370Y-84237441D01*
X109995846Y-84161512D01*
X109954463Y-84090981D01*
X109943283Y-84077449D01*
X109887992Y-84026444D01*
X109818197Y-83989350D01*
X109739600Y-83972863D01*
X109714305Y-83971936D01*
X109639762Y-83980224D01*
X109565774Y-84008875D01*
X109501088Y-84057991D01*
X109483496Y-84076716D01*
X109439221Y-84144146D01*
X109412030Y-84218341D01*
X109397629Y-84294268D01*
X109392262Y-84367525D01*
X109391905Y-84393621D01*
X109201042Y-84393621D01*
X109203674Y-84320160D01*
X109214418Y-84234813D01*
X109233426Y-84157178D01*
X109260700Y-84087252D01*
X109304337Y-84013518D01*
X109359876Y-83950887D01*
X109370289Y-83941528D01*
X109434961Y-83893991D01*
X109505559Y-83858130D01*
X109582082Y-83833944D01*
X109664531Y-83821435D01*
X109714305Y-83819528D01*
X109796037Y-83824758D01*
G37*
G36*
X110438241Y-84945000D02*
G01*
X110438241Y-83842976D01*
X110604937Y-83842976D01*
X110604937Y-83997581D01*
X110653911Y-83937071D01*
X110710432Y-83889080D01*
X110785914Y-83848914D01*
X110858789Y-83828049D01*
X110939212Y-83819702D01*
X110953349Y-83819528D01*
X111031060Y-83825454D01*
X111103450Y-83843231D01*
X111135066Y-83855432D01*
X111199771Y-83890875D01*
X111253970Y-83942029D01*
X111259263Y-83949221D01*
X111296219Y-84016929D01*
X111317149Y-84086974D01*
X111325153Y-84163884D01*
X111327317Y-84244693D01*
X111327407Y-84268325D01*
X111327407Y-84945000D01*
X111142027Y-84945000D01*
X111142027Y-84273087D01*
X111138987Y-84195498D01*
X111126638Y-84121406D01*
X111120411Y-84102362D01*
X111080226Y-84040395D01*
X111043475Y-84011870D01*
X110975507Y-83984319D01*
X110914148Y-83977798D01*
X110836602Y-83986759D01*
X110766675Y-84013643D01*
X110709717Y-84053635D01*
X110664315Y-84114379D01*
X110637830Y-84191868D01*
X110626648Y-84267084D01*
X110623621Y-84341964D01*
X110623621Y-84945000D01*
X110438241Y-84945000D01*
G37*
G36*
X112134834Y-83824899D02*
G01*
X112208628Y-83841012D01*
X112287558Y-83873387D01*
X112358774Y-83920383D01*
X112413677Y-83972302D01*
X112460990Y-84033959D01*
X112498513Y-84104348D01*
X112526248Y-84183470D01*
X112541883Y-84256075D01*
X112550720Y-84334745D01*
X112552896Y-84402048D01*
X112552163Y-84452606D01*
X111735903Y-84452606D01*
X111744283Y-84525758D01*
X111763391Y-84599701D01*
X111797040Y-84670570D01*
X111837752Y-84722616D01*
X111899627Y-84771882D01*
X111970302Y-84802902D01*
X112049779Y-84815674D01*
X112066730Y-84816039D01*
X112144585Y-84807272D01*
X112217474Y-84778220D01*
X112240753Y-84762916D01*
X112294436Y-84709294D01*
X112335189Y-84641227D01*
X112355059Y-84593290D01*
X112547034Y-84616737D01*
X112523459Y-84686250D01*
X112487458Y-84756936D01*
X112441794Y-84818279D01*
X112386468Y-84870280D01*
X112378872Y-84876123D01*
X112313270Y-84916515D01*
X112239196Y-84945366D01*
X112167431Y-84961144D01*
X112089180Y-84968086D01*
X112065631Y-84968447D01*
X111979133Y-84963230D01*
X111899617Y-84947581D01*
X111827081Y-84921499D01*
X111761526Y-84884984D01*
X111702952Y-84838037D01*
X111684979Y-84820069D01*
X111637168Y-84760091D01*
X111599249Y-84691716D01*
X111571222Y-84614943D01*
X111553087Y-84529771D01*
X111545531Y-84452381D01*
X111544295Y-84403147D01*
X111547765Y-84319511D01*
X111550357Y-84300198D01*
X111746161Y-84300198D01*
X112357257Y-84300198D01*
X112346686Y-84224741D01*
X112324084Y-84148100D01*
X112287281Y-84084043D01*
X112233266Y-84029851D01*
X112163528Y-83990438D01*
X112092015Y-83973688D01*
X112057571Y-83971936D01*
X111981629Y-83980666D01*
X111907267Y-84010434D01*
X111848005Y-84055829D01*
X111842515Y-84061329D01*
X111795797Y-84123067D01*
X111764176Y-84196540D01*
X111748627Y-84272700D01*
X111746161Y-84300198D01*
X111550357Y-84300198D01*
X111558176Y-84241939D01*
X111575529Y-84170432D01*
X111605513Y-84092628D01*
X111645493Y-84023557D01*
X111686444Y-83972669D01*
X111742725Y-83920625D01*
X111804957Y-83879349D01*
X111873140Y-83848840D01*
X111947272Y-83829100D01*
X112027356Y-83820127D01*
X112055373Y-83819528D01*
X112134834Y-83824899D01*
G37*
G36*
X113464410Y-84218133D02*
G01*
X113273900Y-84218133D01*
X113637700Y-83397477D01*
X113787177Y-83397477D01*
X114152808Y-84218133D01*
X113966329Y-84218133D01*
X113711706Y-83607404D01*
X113464410Y-84218133D01*
G37*
G36*
X100397304Y-75972500D02*
G01*
X100104579Y-75210462D01*
X100212840Y-75210462D01*
X100409211Y-75764588D01*
X100421895Y-75801428D01*
X100433361Y-75836935D01*
X100444674Y-75874823D01*
X100448778Y-75889518D01*
X100460306Y-75850477D01*
X100471598Y-75815341D01*
X100483760Y-75780204D01*
X100489445Y-75764588D01*
X100693510Y-75210462D01*
X100795542Y-75210462D01*
X100499886Y-75972500D01*
X100397304Y-75972500D01*
G37*
G36*
X101420010Y-75702855D02*
G01*
X101520027Y-75728135D01*
X101508956Y-75765726D01*
X101495434Y-75800420D01*
X101475972Y-75838227D01*
X101452981Y-75871861D01*
X101426461Y-75901322D01*
X101406821Y-75918644D01*
X101374971Y-75940931D01*
X101340558Y-75958606D01*
X101303581Y-75971671D01*
X101264042Y-75980124D01*
X101221939Y-75983967D01*
X101207336Y-75984223D01*
X101170267Y-75983002D01*
X101128725Y-75978314D01*
X101090390Y-75970109D01*
X101055262Y-75958389D01*
X101018332Y-75940270D01*
X101008583Y-75934214D01*
X100976908Y-75910197D01*
X100948722Y-75881902D01*
X100924024Y-75849329D01*
X100902815Y-75812478D01*
X100892262Y-75789501D01*
X100878691Y-75753428D01*
X100867928Y-75716377D01*
X100859972Y-75678346D01*
X100854824Y-75639337D01*
X100852485Y-75599349D01*
X100852329Y-75585802D01*
X100853913Y-75542358D01*
X100858665Y-75501052D01*
X100866587Y-75461884D01*
X100877676Y-75424854D01*
X100891935Y-75389962D01*
X100897391Y-75378806D01*
X100918930Y-75342211D01*
X100944114Y-75309684D01*
X100972945Y-75281223D01*
X101005423Y-75256830D01*
X101025619Y-75244717D01*
X101062872Y-75226801D01*
X101101704Y-75213286D01*
X101142113Y-75204171D01*
X101184100Y-75199457D01*
X101208801Y-75198738D01*
X101250053Y-75200793D01*
X101288769Y-75206956D01*
X101324946Y-75217227D01*
X101363947Y-75234404D01*
X101399494Y-75257173D01*
X101431070Y-75285018D01*
X101458158Y-75317420D01*
X101477804Y-75348822D01*
X101494153Y-75383572D01*
X101507205Y-75421671D01*
X101408653Y-75444935D01*
X101396053Y-75410261D01*
X101378862Y-75376000D01*
X101355965Y-75344299D01*
X101332449Y-75322203D01*
X101298689Y-75301917D01*
X101259920Y-75289144D01*
X101220746Y-75284073D01*
X101206786Y-75283735D01*
X101170077Y-75285751D01*
X101131451Y-75292992D01*
X101096375Y-75305500D01*
X101061156Y-75325867D01*
X101031025Y-75351841D01*
X101006371Y-75382365D01*
X100987194Y-75417438D01*
X100978907Y-75438890D01*
X100968569Y-75474622D01*
X100961185Y-75510926D01*
X100956754Y-75547803D01*
X100955277Y-75585252D01*
X100956618Y-75626625D01*
X100960641Y-75665630D01*
X100967347Y-75702269D01*
X100978295Y-75741244D01*
X100983304Y-75755062D01*
X100999344Y-75788962D01*
X101022014Y-75821653D01*
X101049582Y-75848578D01*
X101070682Y-75863323D01*
X101104835Y-75880679D01*
X101140523Y-75892354D01*
X101177748Y-75898350D01*
X101199092Y-75899227D01*
X101239438Y-75896135D01*
X101276578Y-75886862D01*
X101310513Y-75871406D01*
X101341242Y-75849767D01*
X101368009Y-75822038D01*
X101390060Y-75788310D01*
X101405485Y-75753876D01*
X101417298Y-75714850D01*
X101420010Y-75702855D01*
G37*
G36*
X102177651Y-75702855D02*
G01*
X102277669Y-75728135D01*
X102266597Y-75765726D01*
X102253075Y-75800420D01*
X102233613Y-75838227D01*
X102210623Y-75871861D01*
X102184103Y-75901322D01*
X102164462Y-75918644D01*
X102132612Y-75940931D01*
X102098199Y-75958606D01*
X102061223Y-75971671D01*
X102021683Y-75980124D01*
X101979581Y-75983967D01*
X101964977Y-75984223D01*
X101927908Y-75983002D01*
X101886366Y-75978314D01*
X101848031Y-75970109D01*
X101812903Y-75958389D01*
X101775974Y-75940270D01*
X101766224Y-75934214D01*
X101734549Y-75910197D01*
X101706363Y-75881902D01*
X101681665Y-75849329D01*
X101660457Y-75812478D01*
X101649904Y-75789501D01*
X101636332Y-75753428D01*
X101625569Y-75716377D01*
X101617613Y-75678346D01*
X101612466Y-75639337D01*
X101610126Y-75599349D01*
X101609970Y-75585802D01*
X101611554Y-75542358D01*
X101616307Y-75501052D01*
X101624228Y-75461884D01*
X101635318Y-75424854D01*
X101649576Y-75389962D01*
X101655033Y-75378806D01*
X101676571Y-75342211D01*
X101701756Y-75309684D01*
X101730587Y-75281223D01*
X101763064Y-75256830D01*
X101783260Y-75244717D01*
X101820514Y-75226801D01*
X101859345Y-75213286D01*
X101899754Y-75204171D01*
X101941741Y-75199457D01*
X101966442Y-75198738D01*
X102007695Y-75200793D01*
X102046410Y-75206956D01*
X102082588Y-75217227D01*
X102121588Y-75234404D01*
X102157135Y-75257173D01*
X102188711Y-75285018D01*
X102215799Y-75317420D01*
X102235445Y-75348822D01*
X102251794Y-75383572D01*
X102264846Y-75421671D01*
X102166294Y-75444935D01*
X102153694Y-75410261D01*
X102136504Y-75376000D01*
X102113606Y-75344299D01*
X102090090Y-75322203D01*
X102056330Y-75301917D01*
X102017562Y-75289144D01*
X101978387Y-75284073D01*
X101964427Y-75283735D01*
X101927718Y-75285751D01*
X101889093Y-75292992D01*
X101854016Y-75305500D01*
X101818797Y-75325867D01*
X101788666Y-75351841D01*
X101764012Y-75382365D01*
X101744836Y-75417438D01*
X101736549Y-75438890D01*
X101726210Y-75474622D01*
X101718826Y-75510926D01*
X101714395Y-75547803D01*
X101712918Y-75585252D01*
X101714259Y-75626625D01*
X101718283Y-75665630D01*
X101724988Y-75702269D01*
X101735936Y-75741244D01*
X101740945Y-75755062D01*
X101756985Y-75788962D01*
X101779655Y-75821653D01*
X101807223Y-75848578D01*
X101828323Y-75863323D01*
X101862476Y-75880679D01*
X101898165Y-75892354D01*
X101935390Y-75898350D01*
X101956734Y-75899227D01*
X101997079Y-75896135D01*
X102034220Y-75886862D01*
X102068154Y-75871406D01*
X102098883Y-75849767D01*
X102125650Y-75822038D01*
X102147701Y-75788310D01*
X102163126Y-75753876D01*
X102174939Y-75714850D01*
X102177651Y-75702855D01*
G37*
G36*
X102411941Y-76195249D02*
G01*
X102411941Y-75198738D01*
X102492725Y-75198738D01*
X102492725Y-76195249D01*
X102411941Y-76195249D01*
G37*
G36*
X103314113Y-75673546D02*
G01*
X103314113Y-75585619D01*
X103633949Y-75585069D01*
X103633949Y-75866987D01*
X103601504Y-75891167D01*
X103568603Y-75912577D01*
X103535247Y-75931218D01*
X103501434Y-75947089D01*
X103481908Y-75954914D01*
X103442535Y-75967737D01*
X103402636Y-75976896D01*
X103362210Y-75982391D01*
X103321257Y-75984223D01*
X103280269Y-75982542D01*
X103240697Y-75977500D01*
X103202542Y-75969096D01*
X103165804Y-75957330D01*
X103130483Y-75942202D01*
X103119024Y-75936413D01*
X103086517Y-75916914D01*
X103057140Y-75894415D01*
X103026823Y-75864373D01*
X103004227Y-75835372D01*
X102984761Y-75803369D01*
X102981821Y-75797744D01*
X102966071Y-75762994D01*
X102953579Y-75726749D01*
X102944347Y-75689011D01*
X102938372Y-75649778D01*
X102935657Y-75609052D01*
X102935476Y-75595144D01*
X102937092Y-75554100D01*
X102941942Y-75514086D01*
X102950024Y-75475103D01*
X102961339Y-75437150D01*
X102975887Y-75400227D01*
X102981454Y-75388148D01*
X103000182Y-75353830D01*
X103021743Y-75323001D01*
X103046138Y-75295664D01*
X103078180Y-75268181D01*
X103114078Y-75245450D01*
X103147491Y-75229575D01*
X103182746Y-75216985D01*
X103219842Y-75207679D01*
X103258781Y-75201658D01*
X103299561Y-75198921D01*
X103313564Y-75198738D01*
X103353520Y-75200375D01*
X103391508Y-75205287D01*
X103427526Y-75213473D01*
X103461575Y-75224933D01*
X103496600Y-75241305D01*
X103530181Y-75263337D01*
X103558145Y-75289412D01*
X103565439Y-75298023D01*
X103587235Y-75330105D01*
X103603792Y-75363720D01*
X103617451Y-75401827D01*
X103622592Y-75420205D01*
X103532466Y-75444935D01*
X103519780Y-75408669D01*
X103503719Y-75375722D01*
X103490151Y-75355542D01*
X103464020Y-75329501D01*
X103432283Y-75309778D01*
X103418161Y-75303335D01*
X103381547Y-75291391D01*
X103342049Y-75284960D01*
X103314113Y-75283735D01*
X103277040Y-75285416D01*
X103239280Y-75291226D01*
X103201918Y-75302411D01*
X103195594Y-75304984D01*
X103160793Y-75322801D01*
X103129195Y-75346347D01*
X103114811Y-75360854D01*
X103092223Y-75389984D01*
X103072969Y-75423924D01*
X103067367Y-75436692D01*
X103054704Y-75473076D01*
X103045660Y-75510972D01*
X103040233Y-75550379D01*
X103038424Y-75591297D01*
X103039648Y-75628594D01*
X103044168Y-75669143D01*
X103052020Y-75706502D01*
X103065071Y-75745291D01*
X103073229Y-75763122D01*
X103092600Y-75795431D01*
X103119101Y-75826469D01*
X103150586Y-75851884D01*
X103174345Y-75865704D01*
X103208108Y-75880370D01*
X103247323Y-75891861D01*
X103287842Y-75898048D01*
X103315579Y-75899227D01*
X103355900Y-75896758D01*
X103395578Y-75889352D01*
X103430737Y-75878465D01*
X103442341Y-75873948D01*
X103478104Y-75857826D01*
X103510667Y-75839349D01*
X103536130Y-75820092D01*
X103536130Y-75673546D01*
X103314113Y-75673546D01*
G37*
G36*
X103775915Y-75972500D02*
G01*
X103775915Y-75210462D01*
X103878314Y-75210462D01*
X104275087Y-75808735D01*
X104275087Y-75210462D01*
X104370891Y-75210462D01*
X104370891Y-75972500D01*
X104268492Y-75972500D01*
X103871720Y-75373677D01*
X103871720Y-75972500D01*
X103775915Y-75972500D01*
G37*
G36*
X104836219Y-75211149D02*
G01*
X104876605Y-75213564D01*
X104913728Y-75218286D01*
X104929230Y-75221453D01*
X104967899Y-75233238D01*
X105002846Y-75249817D01*
X105034073Y-75271191D01*
X105039872Y-75276041D01*
X105067922Y-75303278D01*
X105092171Y-75334064D01*
X105112618Y-75368399D01*
X105129265Y-75406284D01*
X105140828Y-75441992D01*
X105149551Y-75479874D01*
X105155434Y-75519930D01*
X105158477Y-75562160D01*
X105158941Y-75587267D01*
X105157976Y-75624308D01*
X105154513Y-75664322D01*
X105148531Y-75701863D01*
X105138790Y-75741140D01*
X105126646Y-75777027D01*
X105111011Y-75812619D01*
X105091210Y-75846563D01*
X105087316Y-75852149D01*
X105062973Y-75882494D01*
X105034683Y-75909438D01*
X105018623Y-75921392D01*
X104985691Y-75939787D01*
X104950730Y-75953225D01*
X104928314Y-75959494D01*
X104890183Y-75966898D01*
X104852287Y-75970963D01*
X104815550Y-75972449D01*
X104807048Y-75972500D01*
X104534473Y-75972500D01*
X104534473Y-75884572D01*
X104634490Y-75884572D01*
X104795690Y-75884572D01*
X104835180Y-75883456D01*
X104873076Y-75879600D01*
X104910239Y-75871335D01*
X104912927Y-75870467D01*
X104946817Y-75855916D01*
X104977477Y-75833877D01*
X104980704Y-75830717D01*
X105005142Y-75800148D01*
X105023651Y-75765972D01*
X105036025Y-75733630D01*
X105045677Y-75697275D01*
X105052170Y-75656833D01*
X105055290Y-75617455D01*
X105055992Y-75585802D01*
X105054620Y-75542572D01*
X105050505Y-75503284D01*
X105042237Y-75462429D01*
X105030234Y-75426939D01*
X105016974Y-75400788D01*
X104993797Y-75367791D01*
X104967953Y-75341547D01*
X104936111Y-75320305D01*
X104922452Y-75314143D01*
X104885461Y-75304543D01*
X104848656Y-75300251D01*
X104809421Y-75298528D01*
X104793126Y-75298389D01*
X104634490Y-75298389D01*
X104634490Y-75884572D01*
X104534473Y-75884572D01*
X104534473Y-75210462D01*
X104794774Y-75210462D01*
X104836219Y-75211149D01*
G37*
G36*
X105307684Y-76195249D02*
G01*
X105307684Y-75198738D01*
X105388468Y-75198738D01*
X105388468Y-76195249D01*
X105307684Y-76195249D01*
G37*
G36*
X105853384Y-75972500D02*
G01*
X105853384Y-75210462D01*
X106003777Y-75210462D01*
X106182562Y-75750849D01*
X106194091Y-75786215D01*
X106206152Y-75823756D01*
X106217177Y-75859030D01*
X106218649Y-75863872D01*
X106230301Y-75827173D01*
X106243120Y-75788168D01*
X106255411Y-75751452D01*
X106258766Y-75741507D01*
X106439567Y-75210462D01*
X106574023Y-75210462D01*
X106574023Y-75972500D01*
X106477669Y-75972500D01*
X106477669Y-75333560D01*
X106258217Y-75972500D01*
X106168091Y-75972500D01*
X105949555Y-75322752D01*
X105949555Y-75972500D01*
X105853384Y-75972500D01*
G37*
G36*
X107269382Y-75702855D02*
G01*
X107369399Y-75728135D01*
X107358328Y-75765726D01*
X107344806Y-75800420D01*
X107325344Y-75838227D01*
X107302353Y-75871861D01*
X107275833Y-75901322D01*
X107256193Y-75918644D01*
X107224343Y-75940931D01*
X107189930Y-75958606D01*
X107152953Y-75971671D01*
X107113414Y-75980124D01*
X107071311Y-75983967D01*
X107056707Y-75984223D01*
X107019639Y-75983002D01*
X106978097Y-75978314D01*
X106939762Y-75970109D01*
X106904634Y-75958389D01*
X106867704Y-75940270D01*
X106857955Y-75934214D01*
X106826280Y-75910197D01*
X106798094Y-75881902D01*
X106773396Y-75849329D01*
X106752187Y-75812478D01*
X106741634Y-75789501D01*
X106728063Y-75753428D01*
X106717300Y-75716377D01*
X106709344Y-75678346D01*
X106704196Y-75639337D01*
X106701856Y-75599349D01*
X106701700Y-75585802D01*
X106703285Y-75542358D01*
X106708037Y-75501052D01*
X106715959Y-75461884D01*
X106727048Y-75424854D01*
X106741306Y-75389962D01*
X106746763Y-75378806D01*
X106768301Y-75342211D01*
X106793486Y-75309684D01*
X106822317Y-75281223D01*
X106854795Y-75256830D01*
X106874991Y-75244717D01*
X106912244Y-75226801D01*
X106951076Y-75213286D01*
X106991485Y-75204171D01*
X107033472Y-75199457D01*
X107058173Y-75198738D01*
X107099425Y-75200793D01*
X107138141Y-75206956D01*
X107174318Y-75217227D01*
X107213319Y-75234404D01*
X107248866Y-75257173D01*
X107280442Y-75285018D01*
X107307530Y-75317420D01*
X107327176Y-75348822D01*
X107343525Y-75383572D01*
X107356577Y-75421671D01*
X107258025Y-75444935D01*
X107245425Y-75410261D01*
X107228234Y-75376000D01*
X107205337Y-75344299D01*
X107181821Y-75322203D01*
X107148061Y-75301917D01*
X107109292Y-75289144D01*
X107070118Y-75284073D01*
X107056158Y-75283735D01*
X107019449Y-75285751D01*
X106980823Y-75292992D01*
X106945747Y-75305500D01*
X106910528Y-75325867D01*
X106880397Y-75351841D01*
X106855743Y-75382365D01*
X106836566Y-75417438D01*
X106828279Y-75438890D01*
X106817941Y-75474622D01*
X106810556Y-75510926D01*
X106806126Y-75547803D01*
X106804649Y-75585252D01*
X106805990Y-75626625D01*
X106810013Y-75665630D01*
X106816719Y-75702269D01*
X106827667Y-75741244D01*
X106832676Y-75755062D01*
X106848716Y-75788962D01*
X106871386Y-75821653D01*
X106898954Y-75848578D01*
X106920054Y-75863323D01*
X106954206Y-75880679D01*
X106989895Y-75892354D01*
X107027120Y-75898350D01*
X107048464Y-75899227D01*
X107088810Y-75896135D01*
X107125950Y-75886862D01*
X107159885Y-75871406D01*
X107190614Y-75849767D01*
X107217381Y-75822038D01*
X107239432Y-75788310D01*
X107254857Y-75753876D01*
X107266670Y-75714850D01*
X107269382Y-75702855D01*
G37*
G36*
X107484071Y-75972500D02*
G01*
X107484071Y-75210462D01*
X107584089Y-75210462D01*
X107584089Y-75884572D01*
X107955949Y-75884572D01*
X107955949Y-75972500D01*
X107484071Y-75972500D01*
G37*
G36*
X108450436Y-75211452D02*
G01*
X108487652Y-75214424D01*
X108524517Y-75220246D01*
X108562098Y-75231161D01*
X108595731Y-75249011D01*
X108624343Y-75274350D01*
X108645996Y-75303885D01*
X108662611Y-75337569D01*
X108673072Y-75373365D01*
X108677380Y-75411272D01*
X108677503Y-75419106D01*
X108674252Y-75458261D01*
X108664497Y-75494211D01*
X108645750Y-75530822D01*
X108625479Y-75556493D01*
X108595930Y-75581806D01*
X108559305Y-75602059D01*
X108521454Y-75615630D01*
X108484699Y-75624178D01*
X108464829Y-75627384D01*
X108497777Y-75645255D01*
X108525095Y-75665120D01*
X108551993Y-75692372D01*
X108577961Y-75723523D01*
X108600536Y-75754894D01*
X108607894Y-75766053D01*
X108739419Y-75972500D01*
X108613572Y-75972500D01*
X108513738Y-75814596D01*
X108492810Y-75782437D01*
X108471564Y-75751046D01*
X108448903Y-75719568D01*
X108441564Y-75710000D01*
X108416274Y-75680786D01*
X108390823Y-75659258D01*
X108356785Y-75642497D01*
X108345211Y-75639108D01*
X108307498Y-75635673D01*
X108289523Y-75635444D01*
X108173569Y-75635444D01*
X108173569Y-75972500D01*
X108073735Y-75972500D01*
X108073735Y-75550448D01*
X108173569Y-75550448D01*
X108388442Y-75550448D01*
X108428345Y-75549035D01*
X108465502Y-75544216D01*
X108495603Y-75535976D01*
X108529629Y-75517200D01*
X108554405Y-75489815D01*
X108570127Y-75454398D01*
X108574555Y-75420572D01*
X108569068Y-75382361D01*
X108552607Y-75349612D01*
X108535537Y-75330812D01*
X108503492Y-75310684D01*
X108465081Y-75299636D01*
X108427989Y-75295769D01*
X108412622Y-75295458D01*
X108173569Y-75295458D01*
X108173569Y-75550448D01*
X108073735Y-75550448D01*
X108073735Y-75210462D01*
X108408592Y-75210462D01*
X108450436Y-75211452D01*
G37*
G36*
X108845298Y-76195249D02*
G01*
X108845298Y-75198738D01*
X108926081Y-75198738D01*
X108926081Y-76195249D01*
X108845298Y-76195249D01*
G37*
G36*
X109718410Y-75211041D02*
G01*
X109755683Y-75213045D01*
X109793815Y-75217789D01*
X109829957Y-75226203D01*
X109864497Y-75239925D01*
X109887055Y-75253326D01*
X109915147Y-75278087D01*
X109938403Y-75309800D01*
X109947505Y-75326782D01*
X109961570Y-75363430D01*
X109968760Y-75399378D01*
X109970586Y-75430464D01*
X109967649Y-75471439D01*
X109958840Y-75509574D01*
X109944158Y-75544869D01*
X109923602Y-75577324D01*
X109909220Y-75594595D01*
X109877647Y-75620790D01*
X109843065Y-75638122D01*
X109801540Y-75650727D01*
X109761632Y-75657621D01*
X109716904Y-75661232D01*
X109687752Y-75661823D01*
X109493946Y-75661823D01*
X109493946Y-75972500D01*
X109393928Y-75972500D01*
X109393928Y-75573895D01*
X109493946Y-75573895D01*
X109689218Y-75573895D01*
X109728922Y-75572133D01*
X109767708Y-75565805D01*
X109802940Y-75553184D01*
X109826788Y-75537076D01*
X109849941Y-75508234D01*
X109863483Y-75472336D01*
X109867454Y-75433578D01*
X109863494Y-75396583D01*
X109850370Y-75361881D01*
X109843457Y-75350779D01*
X109817751Y-75323605D01*
X109782878Y-75305888D01*
X109780443Y-75305167D01*
X109741538Y-75299878D01*
X109703526Y-75298495D01*
X109687203Y-75298389D01*
X109493946Y-75298389D01*
X109493946Y-75573895D01*
X109393928Y-75573895D01*
X109393928Y-75210462D01*
X109678960Y-75210462D01*
X109718410Y-75211041D01*
G37*
G36*
X110447226Y-75673546D02*
G01*
X110447226Y-75585619D01*
X110767062Y-75585069D01*
X110767062Y-75866987D01*
X110734617Y-75891167D01*
X110701716Y-75912577D01*
X110668359Y-75931218D01*
X110634547Y-75947089D01*
X110615020Y-75954914D01*
X110575648Y-75967737D01*
X110535748Y-75976896D01*
X110495322Y-75982391D01*
X110454370Y-75984223D01*
X110413381Y-75982542D01*
X110373810Y-75977500D01*
X110335655Y-75969096D01*
X110298917Y-75957330D01*
X110263596Y-75942202D01*
X110252137Y-75936413D01*
X110219630Y-75916914D01*
X110190253Y-75894415D01*
X110159935Y-75864373D01*
X110137339Y-75835372D01*
X110117873Y-75803369D01*
X110114933Y-75797744D01*
X110099183Y-75762994D01*
X110086692Y-75726749D01*
X110077459Y-75689011D01*
X110071485Y-75649778D01*
X110068769Y-75609052D01*
X110068588Y-75595144D01*
X110070205Y-75554100D01*
X110075054Y-75514086D01*
X110083136Y-75475103D01*
X110094451Y-75437150D01*
X110108999Y-75400227D01*
X110114567Y-75388148D01*
X110133294Y-75353830D01*
X110154855Y-75323001D01*
X110179250Y-75295664D01*
X110211292Y-75268181D01*
X110247191Y-75245450D01*
X110280604Y-75229575D01*
X110315858Y-75216985D01*
X110352955Y-75207679D01*
X110391893Y-75201658D01*
X110432673Y-75198921D01*
X110446676Y-75198738D01*
X110486633Y-75200375D01*
X110524620Y-75205287D01*
X110560638Y-75213473D01*
X110594687Y-75224933D01*
X110629713Y-75241305D01*
X110663294Y-75263337D01*
X110691258Y-75289412D01*
X110698551Y-75298023D01*
X110720347Y-75330105D01*
X110736905Y-75363720D01*
X110750564Y-75401827D01*
X110755704Y-75420205D01*
X110665579Y-75444935D01*
X110652892Y-75408669D01*
X110636831Y-75375722D01*
X110623264Y-75355542D01*
X110597132Y-75329501D01*
X110565395Y-75309778D01*
X110551273Y-75303335D01*
X110514660Y-75291391D01*
X110475161Y-75284960D01*
X110447226Y-75283735D01*
X110410152Y-75285416D01*
X110372392Y-75291226D01*
X110335030Y-75302411D01*
X110328707Y-75304984D01*
X110293905Y-75322801D01*
X110262308Y-75346347D01*
X110247923Y-75360854D01*
X110225335Y-75389984D01*
X110206081Y-75423924D01*
X110200479Y-75436692D01*
X110187817Y-75473076D01*
X110178772Y-75510972D01*
X110173345Y-75550379D01*
X110171536Y-75591297D01*
X110172760Y-75628594D01*
X110177281Y-75669143D01*
X110185132Y-75706502D01*
X110198184Y-75745291D01*
X110206341Y-75763122D01*
X110225713Y-75795431D01*
X110252213Y-75826469D01*
X110283698Y-75851884D01*
X110307458Y-75865704D01*
X110341220Y-75880370D01*
X110380435Y-75891861D01*
X110420954Y-75898048D01*
X110448691Y-75899227D01*
X110489013Y-75896758D01*
X110528690Y-75889352D01*
X110563849Y-75878465D01*
X110575453Y-75873948D01*
X110611217Y-75857826D01*
X110643779Y-75839349D01*
X110669242Y-75820092D01*
X110669242Y-75673546D01*
X110447226Y-75673546D01*
G37*
G36*
X111211690Y-75211149D02*
G01*
X111252076Y-75213564D01*
X111289199Y-75218286D01*
X111304701Y-75221453D01*
X111343370Y-75233238D01*
X111378317Y-75249817D01*
X111409544Y-75271191D01*
X111415343Y-75276041D01*
X111443393Y-75303278D01*
X111467642Y-75334064D01*
X111488089Y-75368399D01*
X111504736Y-75406284D01*
X111516299Y-75441992D01*
X111525022Y-75479874D01*
X111530905Y-75519930D01*
X111533948Y-75562160D01*
X111534412Y-75587267D01*
X111533447Y-75624308D01*
X111529984Y-75664322D01*
X111524002Y-75701863D01*
X111514262Y-75741140D01*
X111502117Y-75777027D01*
X111486482Y-75812619D01*
X111466681Y-75846563D01*
X111462787Y-75852149D01*
X111438444Y-75882494D01*
X111410154Y-75909438D01*
X111394094Y-75921392D01*
X111361162Y-75939787D01*
X111326201Y-75953225D01*
X111303785Y-75959494D01*
X111265654Y-75966898D01*
X111227758Y-75970963D01*
X111191021Y-75972449D01*
X111182519Y-75972500D01*
X110909944Y-75972500D01*
X110909944Y-75884572D01*
X111009961Y-75884572D01*
X111171161Y-75884572D01*
X111210651Y-75883456D01*
X111248547Y-75879600D01*
X111285710Y-75871335D01*
X111288398Y-75870467D01*
X111322288Y-75855916D01*
X111352948Y-75833877D01*
X111356175Y-75830717D01*
X111380613Y-75800148D01*
X111399122Y-75765972D01*
X111411496Y-75733630D01*
X111421148Y-75697275D01*
X111427641Y-75656833D01*
X111430761Y-75617455D01*
X111431463Y-75585802D01*
X111430091Y-75542572D01*
X111425976Y-75503284D01*
X111417708Y-75462429D01*
X111405705Y-75426939D01*
X111392445Y-75400788D01*
X111369268Y-75367791D01*
X111343424Y-75341547D01*
X111311582Y-75320305D01*
X111297923Y-75314143D01*
X111260932Y-75304543D01*
X111224128Y-75300251D01*
X111184892Y-75298528D01*
X111168597Y-75298389D01*
X111009961Y-75298389D01*
X111009961Y-75884572D01*
X110909944Y-75884572D01*
X110909944Y-75210462D01*
X111170245Y-75210462D01*
X111211690Y-75211149D01*
G37*
G36*
X111683155Y-76195249D02*
G01*
X111683155Y-75198738D01*
X111763939Y-75198738D01*
X111763939Y-76195249D01*
X111683155Y-76195249D01*
G37*
G36*
X112556267Y-75211041D02*
G01*
X112593540Y-75213045D01*
X112631673Y-75217789D01*
X112667815Y-75226203D01*
X112702355Y-75239925D01*
X112724912Y-75253326D01*
X112753005Y-75278087D01*
X112776261Y-75309800D01*
X112785362Y-75326782D01*
X112799427Y-75363430D01*
X112806618Y-75399378D01*
X112808443Y-75430464D01*
X112805507Y-75471439D01*
X112796697Y-75509574D01*
X112782015Y-75544869D01*
X112761460Y-75577324D01*
X112747077Y-75594595D01*
X112715505Y-75620790D01*
X112680922Y-75638122D01*
X112639397Y-75650727D01*
X112599490Y-75657621D01*
X112554761Y-75661232D01*
X112525610Y-75661823D01*
X112331803Y-75661823D01*
X112331803Y-75972500D01*
X112231786Y-75972500D01*
X112231786Y-75573895D01*
X112331803Y-75573895D01*
X112527076Y-75573895D01*
X112566780Y-75572133D01*
X112605566Y-75565805D01*
X112640797Y-75553184D01*
X112664645Y-75537076D01*
X112687798Y-75508234D01*
X112701340Y-75472336D01*
X112705312Y-75433578D01*
X112701351Y-75396583D01*
X112688228Y-75361881D01*
X112681315Y-75350779D01*
X112655609Y-75323605D01*
X112620735Y-75305888D01*
X112618300Y-75305167D01*
X112579395Y-75299878D01*
X112541384Y-75298495D01*
X112525061Y-75298389D01*
X112331803Y-75298389D01*
X112331803Y-75573895D01*
X112231786Y-75573895D01*
X112231786Y-75210462D01*
X112516817Y-75210462D01*
X112556267Y-75211041D01*
G37*
G36*
X113285083Y-75673546D02*
G01*
X113285083Y-75585619D01*
X113604919Y-75585069D01*
X113604919Y-75866987D01*
X113572474Y-75891167D01*
X113539573Y-75912577D01*
X113506217Y-75931218D01*
X113472404Y-75947089D01*
X113452878Y-75954914D01*
X113413505Y-75967737D01*
X113373606Y-75976896D01*
X113333180Y-75982391D01*
X113292227Y-75984223D01*
X113251239Y-75982542D01*
X113211667Y-75977500D01*
X113173512Y-75969096D01*
X113136774Y-75957330D01*
X113101453Y-75942202D01*
X113089994Y-75936413D01*
X113057487Y-75916914D01*
X113028110Y-75894415D01*
X112997793Y-75864373D01*
X112975197Y-75835372D01*
X112955731Y-75803369D01*
X112952791Y-75797744D01*
X112937041Y-75762994D01*
X112924549Y-75726749D01*
X112915317Y-75689011D01*
X112909342Y-75649778D01*
X112906627Y-75609052D01*
X112906446Y-75595144D01*
X112908062Y-75554100D01*
X112912912Y-75514086D01*
X112920994Y-75475103D01*
X112932309Y-75437150D01*
X112946857Y-75400227D01*
X112952424Y-75388148D01*
X112971152Y-75353830D01*
X112992713Y-75323001D01*
X113017108Y-75295664D01*
X113049150Y-75268181D01*
X113085048Y-75245450D01*
X113118461Y-75229575D01*
X113153716Y-75216985D01*
X113190812Y-75207679D01*
X113229751Y-75201658D01*
X113270531Y-75198921D01*
X113284534Y-75198738D01*
X113324490Y-75200375D01*
X113362478Y-75205287D01*
X113398496Y-75213473D01*
X113432545Y-75224933D01*
X113467570Y-75241305D01*
X113501151Y-75263337D01*
X113529115Y-75289412D01*
X113536409Y-75298023D01*
X113558205Y-75330105D01*
X113574762Y-75363720D01*
X113588421Y-75401827D01*
X113593562Y-75420205D01*
X113503436Y-75444935D01*
X113490750Y-75408669D01*
X113474689Y-75375722D01*
X113461121Y-75355542D01*
X113434990Y-75329501D01*
X113403253Y-75309778D01*
X113389131Y-75303335D01*
X113352517Y-75291391D01*
X113313019Y-75284960D01*
X113285083Y-75283735D01*
X113248010Y-75285416D01*
X113210250Y-75291226D01*
X113172888Y-75302411D01*
X113166564Y-75304984D01*
X113131763Y-75322801D01*
X113100165Y-75346347D01*
X113085781Y-75360854D01*
X113063193Y-75389984D01*
X113043939Y-75423924D01*
X113038337Y-75436692D01*
X113025674Y-75473076D01*
X113016630Y-75510972D01*
X113011203Y-75550379D01*
X113009394Y-75591297D01*
X113010618Y-75628594D01*
X113015138Y-75669143D01*
X113022990Y-75706502D01*
X113036041Y-75745291D01*
X113044199Y-75763122D01*
X113063570Y-75795431D01*
X113090071Y-75826469D01*
X113121556Y-75851884D01*
X113145315Y-75865704D01*
X113179078Y-75880370D01*
X113218293Y-75891861D01*
X113258812Y-75898048D01*
X113286549Y-75899227D01*
X113326870Y-75896758D01*
X113366548Y-75889352D01*
X113401707Y-75878465D01*
X113413311Y-75873948D01*
X113449074Y-75857826D01*
X113481637Y-75839349D01*
X113507100Y-75820092D01*
X113507100Y-75673546D01*
X113285083Y-75673546D01*
G37*
G36*
X114286723Y-75702855D02*
G01*
X114386741Y-75728135D01*
X114375669Y-75765726D01*
X114362147Y-75800420D01*
X114342685Y-75838227D01*
X114319695Y-75871861D01*
X114293175Y-75901322D01*
X114273534Y-75918644D01*
X114241684Y-75940931D01*
X114207271Y-75958606D01*
X114170294Y-75971671D01*
X114130755Y-75980124D01*
X114088652Y-75983967D01*
X114074049Y-75984223D01*
X114036980Y-75983002D01*
X113995438Y-75978314D01*
X113957103Y-75970109D01*
X113921975Y-75958389D01*
X113885046Y-75940270D01*
X113875296Y-75934214D01*
X113843621Y-75910197D01*
X113815435Y-75881902D01*
X113790737Y-75849329D01*
X113769528Y-75812478D01*
X113758975Y-75789501D01*
X113745404Y-75753428D01*
X113734641Y-75716377D01*
X113726685Y-75678346D01*
X113721538Y-75639337D01*
X113719198Y-75599349D01*
X113719042Y-75585802D01*
X113720626Y-75542358D01*
X113725379Y-75501052D01*
X113733300Y-75461884D01*
X113744390Y-75424854D01*
X113758648Y-75389962D01*
X113764105Y-75378806D01*
X113785643Y-75342211D01*
X113810827Y-75309684D01*
X113839659Y-75281223D01*
X113872136Y-75256830D01*
X113892332Y-75244717D01*
X113929586Y-75226801D01*
X113968417Y-75213286D01*
X114008826Y-75204171D01*
X114050813Y-75199457D01*
X114075514Y-75198738D01*
X114116767Y-75200793D01*
X114155482Y-75206956D01*
X114191659Y-75217227D01*
X114230660Y-75234404D01*
X114266207Y-75257173D01*
X114297783Y-75285018D01*
X114324871Y-75317420D01*
X114344517Y-75348822D01*
X114360866Y-75383572D01*
X114373918Y-75421671D01*
X114275366Y-75444935D01*
X114262766Y-75410261D01*
X114245576Y-75376000D01*
X114222678Y-75344299D01*
X114199162Y-75322203D01*
X114165402Y-75301917D01*
X114126633Y-75289144D01*
X114087459Y-75284073D01*
X114073499Y-75283735D01*
X114036790Y-75285751D01*
X113998165Y-75292992D01*
X113963088Y-75305500D01*
X113927869Y-75325867D01*
X113897738Y-75351841D01*
X113873084Y-75382365D01*
X113853908Y-75417438D01*
X113845621Y-75438890D01*
X113835282Y-75474622D01*
X113827898Y-75510926D01*
X113823467Y-75547803D01*
X113821990Y-75585252D01*
X113823331Y-75626625D01*
X113827355Y-75665630D01*
X113834060Y-75702269D01*
X113845008Y-75741244D01*
X113850017Y-75755062D01*
X113866057Y-75788962D01*
X113888727Y-75821653D01*
X113916295Y-75848578D01*
X113937395Y-75863323D01*
X113971548Y-75880679D01*
X114007237Y-75892354D01*
X114044461Y-75898350D01*
X114065806Y-75899227D01*
X114106151Y-75896135D01*
X114143292Y-75886862D01*
X114177226Y-75871406D01*
X114207955Y-75849767D01*
X114234722Y-75822038D01*
X114256773Y-75788310D01*
X114272198Y-75753876D01*
X114284011Y-75714850D01*
X114286723Y-75702855D01*
G37*
D11*
X143833333Y-73859580D02*
X143785714Y-73907200D01*
X143785714Y-73907200D02*
X143642857Y-73954819D01*
X143642857Y-73954819D02*
X143547619Y-73954819D01*
X143547619Y-73954819D02*
X143404762Y-73907200D01*
X143404762Y-73907200D02*
X143309524Y-73811961D01*
X143309524Y-73811961D02*
X143261905Y-73716723D01*
X143261905Y-73716723D02*
X143214286Y-73526247D01*
X143214286Y-73526247D02*
X143214286Y-73383390D01*
X143214286Y-73383390D02*
X143261905Y-73192914D01*
X143261905Y-73192914D02*
X143309524Y-73097676D01*
X143309524Y-73097676D02*
X143404762Y-73002438D01*
X143404762Y-73002438D02*
X143547619Y-72954819D01*
X143547619Y-72954819D02*
X143642857Y-72954819D01*
X143642857Y-72954819D02*
X143785714Y-73002438D01*
X143785714Y-73002438D02*
X143833333Y-73050057D01*
X144166667Y-72954819D02*
X144785714Y-72954819D01*
X144785714Y-72954819D02*
X144452381Y-73335771D01*
X144452381Y-73335771D02*
X144595238Y-73335771D01*
X144595238Y-73335771D02*
X144690476Y-73383390D01*
X144690476Y-73383390D02*
X144738095Y-73431009D01*
X144738095Y-73431009D02*
X144785714Y-73526247D01*
X144785714Y-73526247D02*
X144785714Y-73764342D01*
X144785714Y-73764342D02*
X144738095Y-73859580D01*
X144738095Y-73859580D02*
X144690476Y-73907200D01*
X144690476Y-73907200D02*
X144595238Y-73954819D01*
X144595238Y-73954819D02*
X144309524Y-73954819D01*
X144309524Y-73954819D02*
X144214286Y-73907200D01*
X144214286Y-73907200D02*
X144166667Y-73859580D01*
X131838095Y-81454819D02*
X131838095Y-82264342D01*
X131838095Y-82264342D02*
X131885714Y-82359580D01*
X131885714Y-82359580D02*
X131933333Y-82407200D01*
X131933333Y-82407200D02*
X132028571Y-82454819D01*
X132028571Y-82454819D02*
X132219047Y-82454819D01*
X132219047Y-82454819D02*
X132314285Y-82407200D01*
X132314285Y-82407200D02*
X132361904Y-82359580D01*
X132361904Y-82359580D02*
X132409523Y-82264342D01*
X132409523Y-82264342D02*
X132409523Y-81454819D01*
X132838095Y-81550057D02*
X132885714Y-81502438D01*
X132885714Y-81502438D02*
X132980952Y-81454819D01*
X132980952Y-81454819D02*
X133219047Y-81454819D01*
X133219047Y-81454819D02*
X133314285Y-81502438D01*
X133314285Y-81502438D02*
X133361904Y-81550057D01*
X133361904Y-81550057D02*
X133409523Y-81645295D01*
X133409523Y-81645295D02*
X133409523Y-81740533D01*
X133409523Y-81740533D02*
X133361904Y-81883390D01*
X133361904Y-81883390D02*
X132790476Y-82454819D01*
X132790476Y-82454819D02*
X133409523Y-82454819D01*
X114216666Y-72754819D02*
X114216666Y-73469104D01*
X114216666Y-73469104D02*
X114169047Y-73611961D01*
X114169047Y-73611961D02*
X114073809Y-73707200D01*
X114073809Y-73707200D02*
X113930952Y-73754819D01*
X113930952Y-73754819D02*
X113835714Y-73754819D01*
X115216666Y-73754819D02*
X114645238Y-73754819D01*
X114930952Y-73754819D02*
X114930952Y-72754819D01*
X114930952Y-72754819D02*
X114835714Y-72897676D01*
X114835714Y-72897676D02*
X114740476Y-72992914D01*
X114740476Y-72992914D02*
X114645238Y-73040533D01*
X130233333Y-80059580D02*
X130185714Y-80107200D01*
X130185714Y-80107200D02*
X130042857Y-80154819D01*
X130042857Y-80154819D02*
X129947619Y-80154819D01*
X129947619Y-80154819D02*
X129804762Y-80107200D01*
X129804762Y-80107200D02*
X129709524Y-80011961D01*
X129709524Y-80011961D02*
X129661905Y-79916723D01*
X129661905Y-79916723D02*
X129614286Y-79726247D01*
X129614286Y-79726247D02*
X129614286Y-79583390D01*
X129614286Y-79583390D02*
X129661905Y-79392914D01*
X129661905Y-79392914D02*
X129709524Y-79297676D01*
X129709524Y-79297676D02*
X129804762Y-79202438D01*
X129804762Y-79202438D02*
X129947619Y-79154819D01*
X129947619Y-79154819D02*
X130042857Y-79154819D01*
X130042857Y-79154819D02*
X130185714Y-79202438D01*
X130185714Y-79202438D02*
X130233333Y-79250057D01*
X130614286Y-79250057D02*
X130661905Y-79202438D01*
X130661905Y-79202438D02*
X130757143Y-79154819D01*
X130757143Y-79154819D02*
X130995238Y-79154819D01*
X130995238Y-79154819D02*
X131090476Y-79202438D01*
X131090476Y-79202438D02*
X131138095Y-79250057D01*
X131138095Y-79250057D02*
X131185714Y-79345295D01*
X131185714Y-79345295D02*
X131185714Y-79440533D01*
X131185714Y-79440533D02*
X131138095Y-79583390D01*
X131138095Y-79583390D02*
X130566667Y-80154819D01*
X130566667Y-80154819D02*
X131185714Y-80154819D01*
X130733333Y-73854819D02*
X130400000Y-73378628D01*
X130161905Y-73854819D02*
X130161905Y-72854819D01*
X130161905Y-72854819D02*
X130542857Y-72854819D01*
X130542857Y-72854819D02*
X130638095Y-72902438D01*
X130638095Y-72902438D02*
X130685714Y-72950057D01*
X130685714Y-72950057D02*
X130733333Y-73045295D01*
X130733333Y-73045295D02*
X130733333Y-73188152D01*
X130733333Y-73188152D02*
X130685714Y-73283390D01*
X130685714Y-73283390D02*
X130638095Y-73331009D01*
X130638095Y-73331009D02*
X130542857Y-73378628D01*
X130542857Y-73378628D02*
X130161905Y-73378628D01*
X131638095Y-72854819D02*
X131161905Y-72854819D01*
X131161905Y-72854819D02*
X131114286Y-73331009D01*
X131114286Y-73331009D02*
X131161905Y-73283390D01*
X131161905Y-73283390D02*
X131257143Y-73235771D01*
X131257143Y-73235771D02*
X131495238Y-73235771D01*
X131495238Y-73235771D02*
X131590476Y-73283390D01*
X131590476Y-73283390D02*
X131638095Y-73331009D01*
X131638095Y-73331009D02*
X131685714Y-73426247D01*
X131685714Y-73426247D02*
X131685714Y-73664342D01*
X131685714Y-73664342D02*
X131638095Y-73759580D01*
X131638095Y-73759580D02*
X131590476Y-73807200D01*
X131590476Y-73807200D02*
X131495238Y-73854819D01*
X131495238Y-73854819D02*
X131257143Y-73854819D01*
X131257143Y-73854819D02*
X131161905Y-73807200D01*
X131161905Y-73807200D02*
X131114286Y-73759580D01*
X120738095Y-75554819D02*
X120738095Y-76364342D01*
X120738095Y-76364342D02*
X120785714Y-76459580D01*
X120785714Y-76459580D02*
X120833333Y-76507200D01*
X120833333Y-76507200D02*
X120928571Y-76554819D01*
X120928571Y-76554819D02*
X121119047Y-76554819D01*
X121119047Y-76554819D02*
X121214285Y-76507200D01*
X121214285Y-76507200D02*
X121261904Y-76459580D01*
X121261904Y-76459580D02*
X121309523Y-76364342D01*
X121309523Y-76364342D02*
X121309523Y-75554819D01*
X122309523Y-76554819D02*
X121738095Y-76554819D01*
X122023809Y-76554819D02*
X122023809Y-75554819D01*
X122023809Y-75554819D02*
X121928571Y-75697676D01*
X121928571Y-75697676D02*
X121833333Y-75792914D01*
X121833333Y-75792914D02*
X121738095Y-75840533D01*
X118014286Y-84954819D02*
X118585714Y-84954819D01*
X118300000Y-85954819D02*
X118300000Y-84954819D01*
X118919048Y-85954819D02*
X118919048Y-84954819D01*
X118919048Y-85431009D02*
X119490476Y-85431009D01*
X119490476Y-85954819D02*
X119490476Y-84954819D01*
X120490476Y-85954819D02*
X119919048Y-85954819D01*
X120204762Y-85954819D02*
X120204762Y-84954819D01*
X120204762Y-84954819D02*
X120109524Y-85097676D01*
X120109524Y-85097676D02*
X120014286Y-85192914D01*
X120014286Y-85192914D02*
X119919048Y-85240533D01*
X104466667Y-79707200D02*
X104609524Y-79754819D01*
X104609524Y-79754819D02*
X104847619Y-79754819D01*
X104847619Y-79754819D02*
X104942857Y-79707200D01*
X104942857Y-79707200D02*
X104990476Y-79659580D01*
X104990476Y-79659580D02*
X105038095Y-79564342D01*
X105038095Y-79564342D02*
X105038095Y-79469104D01*
X105038095Y-79469104D02*
X104990476Y-79373866D01*
X104990476Y-79373866D02*
X104942857Y-79326247D01*
X104942857Y-79326247D02*
X104847619Y-79278628D01*
X104847619Y-79278628D02*
X104657143Y-79231009D01*
X104657143Y-79231009D02*
X104561905Y-79183390D01*
X104561905Y-79183390D02*
X104514286Y-79135771D01*
X104514286Y-79135771D02*
X104466667Y-79040533D01*
X104466667Y-79040533D02*
X104466667Y-78945295D01*
X104466667Y-78945295D02*
X104514286Y-78850057D01*
X104514286Y-78850057D02*
X104561905Y-78802438D01*
X104561905Y-78802438D02*
X104657143Y-78754819D01*
X104657143Y-78754819D02*
X104895238Y-78754819D01*
X104895238Y-78754819D02*
X105038095Y-78802438D01*
X105371429Y-78754819D02*
X105609524Y-79754819D01*
X105609524Y-79754819D02*
X105800000Y-79040533D01*
X105800000Y-79040533D02*
X105990476Y-79754819D01*
X105990476Y-79754819D02*
X106228572Y-78754819D01*
X107133333Y-79754819D02*
X106561905Y-79754819D01*
X106847619Y-79754819D02*
X106847619Y-78754819D01*
X106847619Y-78754819D02*
X106752381Y-78897676D01*
X106752381Y-78897676D02*
X106657143Y-78992914D01*
X106657143Y-78992914D02*
X106561905Y-79040533D01*
X143533333Y-79354819D02*
X143200000Y-78878628D01*
X142961905Y-79354819D02*
X142961905Y-78354819D01*
X142961905Y-78354819D02*
X143342857Y-78354819D01*
X143342857Y-78354819D02*
X143438095Y-78402438D01*
X143438095Y-78402438D02*
X143485714Y-78450057D01*
X143485714Y-78450057D02*
X143533333Y-78545295D01*
X143533333Y-78545295D02*
X143533333Y-78688152D01*
X143533333Y-78688152D02*
X143485714Y-78783390D01*
X143485714Y-78783390D02*
X143438095Y-78831009D01*
X143438095Y-78831009D02*
X143342857Y-78878628D01*
X143342857Y-78878628D02*
X142961905Y-78878628D01*
X144390476Y-78688152D02*
X144390476Y-79354819D01*
X144152381Y-78307200D02*
X143914286Y-79021485D01*
X143914286Y-79021485D02*
X144533333Y-79021485D01*
X129133333Y-87754819D02*
X128800000Y-87278628D01*
X128561905Y-87754819D02*
X128561905Y-86754819D01*
X128561905Y-86754819D02*
X128942857Y-86754819D01*
X128942857Y-86754819D02*
X129038095Y-86802438D01*
X129038095Y-86802438D02*
X129085714Y-86850057D01*
X129085714Y-86850057D02*
X129133333Y-86945295D01*
X129133333Y-86945295D02*
X129133333Y-87088152D01*
X129133333Y-87088152D02*
X129085714Y-87183390D01*
X129085714Y-87183390D02*
X129038095Y-87231009D01*
X129038095Y-87231009D02*
X128942857Y-87278628D01*
X128942857Y-87278628D02*
X128561905Y-87278628D01*
X129466667Y-86754819D02*
X130085714Y-86754819D01*
X130085714Y-86754819D02*
X129752381Y-87135771D01*
X129752381Y-87135771D02*
X129895238Y-87135771D01*
X129895238Y-87135771D02*
X129990476Y-87183390D01*
X129990476Y-87183390D02*
X130038095Y-87231009D01*
X130038095Y-87231009D02*
X130085714Y-87326247D01*
X130085714Y-87326247D02*
X130085714Y-87564342D01*
X130085714Y-87564342D02*
X130038095Y-87659580D01*
X130038095Y-87659580D02*
X129990476Y-87707200D01*
X129990476Y-87707200D02*
X129895238Y-87754819D01*
X129895238Y-87754819D02*
X129609524Y-87754819D01*
X129609524Y-87754819D02*
X129514286Y-87707200D01*
X129514286Y-87707200D02*
X129466667Y-87659580D01*
X119533333Y-87754819D02*
X119200000Y-87278628D01*
X118961905Y-87754819D02*
X118961905Y-86754819D01*
X118961905Y-86754819D02*
X119342857Y-86754819D01*
X119342857Y-86754819D02*
X119438095Y-86802438D01*
X119438095Y-86802438D02*
X119485714Y-86850057D01*
X119485714Y-86850057D02*
X119533333Y-86945295D01*
X119533333Y-86945295D02*
X119533333Y-87088152D01*
X119533333Y-87088152D02*
X119485714Y-87183390D01*
X119485714Y-87183390D02*
X119438095Y-87231009D01*
X119438095Y-87231009D02*
X119342857Y-87278628D01*
X119342857Y-87278628D02*
X118961905Y-87278628D01*
X119914286Y-86850057D02*
X119961905Y-86802438D01*
X119961905Y-86802438D02*
X120057143Y-86754819D01*
X120057143Y-86754819D02*
X120295238Y-86754819D01*
X120295238Y-86754819D02*
X120390476Y-86802438D01*
X120390476Y-86802438D02*
X120438095Y-86850057D01*
X120438095Y-86850057D02*
X120485714Y-86945295D01*
X120485714Y-86945295D02*
X120485714Y-87040533D01*
X120485714Y-87040533D02*
X120438095Y-87183390D01*
X120438095Y-87183390D02*
X119866667Y-87754819D01*
X119866667Y-87754819D02*
X120485714Y-87754819D01*
X128933333Y-84454819D02*
X128600000Y-83978628D01*
X128361905Y-84454819D02*
X128361905Y-83454819D01*
X128361905Y-83454819D02*
X128742857Y-83454819D01*
X128742857Y-83454819D02*
X128838095Y-83502438D01*
X128838095Y-83502438D02*
X128885714Y-83550057D01*
X128885714Y-83550057D02*
X128933333Y-83645295D01*
X128933333Y-83645295D02*
X128933333Y-83788152D01*
X128933333Y-83788152D02*
X128885714Y-83883390D01*
X128885714Y-83883390D02*
X128838095Y-83931009D01*
X128838095Y-83931009D02*
X128742857Y-83978628D01*
X128742857Y-83978628D02*
X128361905Y-83978628D01*
X129885714Y-84454819D02*
X129314286Y-84454819D01*
X129600000Y-84454819D02*
X129600000Y-83454819D01*
X129600000Y-83454819D02*
X129504762Y-83597676D01*
X129504762Y-83597676D02*
X129409524Y-83692914D01*
X129409524Y-83692914D02*
X129314286Y-83740533D01*
X142561905Y-82854819D02*
X142561905Y-81854819D01*
X142561905Y-81854819D02*
X142800000Y-81854819D01*
X142800000Y-81854819D02*
X142942857Y-81902438D01*
X142942857Y-81902438D02*
X143038095Y-81997676D01*
X143038095Y-81997676D02*
X143085714Y-82092914D01*
X143085714Y-82092914D02*
X143133333Y-82283390D01*
X143133333Y-82283390D02*
X143133333Y-82426247D01*
X143133333Y-82426247D02*
X143085714Y-82616723D01*
X143085714Y-82616723D02*
X143038095Y-82711961D01*
X143038095Y-82711961D02*
X142942857Y-82807200D01*
X142942857Y-82807200D02*
X142800000Y-82854819D01*
X142800000Y-82854819D02*
X142561905Y-82854819D01*
X143514286Y-81950057D02*
X143561905Y-81902438D01*
X143561905Y-81902438D02*
X143657143Y-81854819D01*
X143657143Y-81854819D02*
X143895238Y-81854819D01*
X143895238Y-81854819D02*
X143990476Y-81902438D01*
X143990476Y-81902438D02*
X144038095Y-81950057D01*
X144038095Y-81950057D02*
X144085714Y-82045295D01*
X144085714Y-82045295D02*
X144085714Y-82140533D01*
X144085714Y-82140533D02*
X144038095Y-82283390D01*
X144038095Y-82283390D02*
X143466667Y-82854819D01*
X143466667Y-82854819D02*
X144085714Y-82854819D01*
X142661905Y-76054819D02*
X142661905Y-75054819D01*
X142661905Y-75054819D02*
X142900000Y-75054819D01*
X142900000Y-75054819D02*
X143042857Y-75102438D01*
X143042857Y-75102438D02*
X143138095Y-75197676D01*
X143138095Y-75197676D02*
X143185714Y-75292914D01*
X143185714Y-75292914D02*
X143233333Y-75483390D01*
X143233333Y-75483390D02*
X143233333Y-75626247D01*
X143233333Y-75626247D02*
X143185714Y-75816723D01*
X143185714Y-75816723D02*
X143138095Y-75911961D01*
X143138095Y-75911961D02*
X143042857Y-76007200D01*
X143042857Y-76007200D02*
X142900000Y-76054819D01*
X142900000Y-76054819D02*
X142661905Y-76054819D01*
X144185714Y-76054819D02*
X143614286Y-76054819D01*
X143900000Y-76054819D02*
X143900000Y-75054819D01*
X143900000Y-75054819D02*
X143804762Y-75197676D01*
X143804762Y-75197676D02*
X143709524Y-75292914D01*
X143709524Y-75292914D02*
X143614286Y-75340533D01*
X124233333Y-73679580D02*
X124185714Y-73727200D01*
X124185714Y-73727200D02*
X124042857Y-73774819D01*
X124042857Y-73774819D02*
X123947619Y-73774819D01*
X123947619Y-73774819D02*
X123804762Y-73727200D01*
X123804762Y-73727200D02*
X123709524Y-73631961D01*
X123709524Y-73631961D02*
X123661905Y-73536723D01*
X123661905Y-73536723D02*
X123614286Y-73346247D01*
X123614286Y-73346247D02*
X123614286Y-73203390D01*
X123614286Y-73203390D02*
X123661905Y-73012914D01*
X123661905Y-73012914D02*
X123709524Y-72917676D01*
X123709524Y-72917676D02*
X123804762Y-72822438D01*
X123804762Y-72822438D02*
X123947619Y-72774819D01*
X123947619Y-72774819D02*
X124042857Y-72774819D01*
X124042857Y-72774819D02*
X124185714Y-72822438D01*
X124185714Y-72822438D02*
X124233333Y-72870057D01*
X125185714Y-73774819D02*
X124614286Y-73774819D01*
X124900000Y-73774819D02*
X124900000Y-72774819D01*
X124900000Y-72774819D02*
X124804762Y-72917676D01*
X124804762Y-72917676D02*
X124709524Y-73012914D01*
X124709524Y-73012914D02*
X124614286Y-73060533D01*
D12*
%TO.C,C3*%
X140988748Y-72765000D02*
X141511252Y-72765000D01*
X140988748Y-74235000D02*
X141511252Y-74235000D01*
%TO.C,U2*%
X137400000Y-74965000D02*
X135450000Y-74965000D01*
X137400000Y-74965000D02*
X139350000Y-74965000D01*
X137400000Y-83835000D02*
X135450000Y-83835000D01*
X137400000Y-83835000D02*
X139350000Y-83835000D01*
X134700000Y-75030000D02*
X134460000Y-74700000D01*
X134940000Y-74700000D01*
X134700000Y-75030000D01*
G36*
X134700000Y-75030000D02*
G01*
X134460000Y-74700000D01*
X134940000Y-74700000D01*
X134700000Y-75030000D01*
G37*
%TO.C,J1*%
X113550000Y-71970000D02*
X113550000Y-73300000D01*
X112220000Y-71970000D02*
X113550000Y-71970000D01*
X110950000Y-71970000D02*
X100730000Y-71970000D01*
X110950000Y-71970000D02*
X110950000Y-74630000D01*
X100730000Y-71970000D02*
X100730000Y-74630000D01*
X110950000Y-74630000D02*
X100730000Y-74630000D01*
%TO.C,C2*%
X131660000Y-75888748D02*
X131660000Y-77311252D01*
X128940000Y-75888748D02*
X128940000Y-77311252D01*
%TO.C,R5*%
X133927064Y-74135000D02*
X133472936Y-74135000D01*
X133927064Y-72665000D02*
X133472936Y-72665000D01*
%TO.C,U1*%
X124500000Y-76940000D02*
X122550000Y-76940000D01*
X124500000Y-76940000D02*
X126450000Y-76940000D01*
X124500000Y-82060000D02*
X122550000Y-82060000D01*
X124500000Y-82060000D02*
X126450000Y-82060000D01*
X121800000Y-77035000D02*
X121560000Y-76705000D01*
X122040000Y-76705000D01*
X121800000Y-77035000D01*
G36*
X121800000Y-77035000D02*
G01*
X121560000Y-76705000D01*
X122040000Y-76705000D01*
X121800000Y-77035000D01*
G37*
%TO.C,TH1*%
X122272936Y-83165000D02*
X122727064Y-83165000D01*
X122272936Y-84635000D02*
X122727064Y-84635000D01*
%TO.C,SW1*%
X109470000Y-76270000D02*
X115930000Y-76270000D01*
X109470000Y-76300000D02*
X109470000Y-76270000D01*
X109470000Y-78200000D02*
X109470000Y-80800000D01*
X109470000Y-82730000D02*
X109470000Y-82700000D01*
X109470000Y-82730000D02*
X115930000Y-82730000D01*
X115930000Y-76270000D02*
X115930000Y-76300000D01*
X115930000Y-78200000D02*
X115930000Y-80800000D01*
X115930000Y-82730000D02*
X115930000Y-82700000D01*
%TO.C,R4*%
X146172936Y-78165000D02*
X146627064Y-78165000D01*
X146172936Y-79635000D02*
X146627064Y-79635000D01*
%TO.C,R3*%
X126272936Y-87135000D02*
X126727064Y-87135000D01*
X126272936Y-85665000D02*
X126727064Y-85665000D01*
%TO.C,R2*%
X122272936Y-85665000D02*
X122727064Y-85665000D01*
X122272936Y-87135000D02*
X122727064Y-87135000D01*
%TO.C,R1*%
X126272936Y-83165000D02*
X126727064Y-83165000D01*
X126272936Y-84635000D02*
X126727064Y-84635000D01*
%TO.C,D2*%
X148085000Y-83360000D02*
X148085000Y-81440000D01*
X148085000Y-81440000D02*
X145400000Y-81440000D01*
X145400000Y-83360000D02*
X148085000Y-83360000D01*
%TO.C,D1*%
X147985000Y-76460000D02*
X147985000Y-74540000D01*
X147985000Y-74540000D02*
X145300000Y-74540000D01*
X145300000Y-76460000D02*
X147985000Y-76460000D01*
%TO.C,C1*%
X124138748Y-74265000D02*
X124661252Y-74265000D01*
X124138748Y-75735000D02*
X124661252Y-75735000D01*
%TD*%
G36*
X105543039Y-66719685D02*
G01*
X105588794Y-66772489D01*
X105600000Y-66824000D01*
X105600000Y-71076000D01*
X105580315Y-71143039D01*
X105527511Y-71188794D01*
X105476000Y-71200000D01*
X102272041Y-71200000D01*
X102205002Y-71180315D01*
X102159247Y-71127511D01*
X102149303Y-71058353D01*
X102154404Y-71036788D01*
X102199999Y-70899999D01*
X102193557Y-70891060D01*
X102156961Y-70880315D01*
X102111206Y-70827511D01*
X102100000Y-70776000D01*
X102100000Y-66824000D01*
X102119685Y-66756961D01*
X102172489Y-66711206D01*
X102224000Y-66700000D01*
X105476000Y-66700000D01*
X105543039Y-66719685D01*
G37*
G36*
X112543039Y-66769685D02*
G01*
X112588794Y-66822489D01*
X112600000Y-66874000D01*
X112600000Y-71076000D01*
X112580315Y-71143039D01*
X112527511Y-71188794D01*
X112476000Y-71200000D01*
X109272041Y-71200000D01*
X109205002Y-71180315D01*
X109159247Y-71127511D01*
X109149303Y-71058353D01*
X109154404Y-71036788D01*
X109199999Y-70899999D01*
X109193557Y-70891060D01*
X109156961Y-70880315D01*
X109111206Y-70827511D01*
X109100000Y-70776000D01*
X109100000Y-66874000D01*
X109119685Y-66806961D01*
X109172489Y-66761206D01*
X109224000Y-66750000D01*
X112476000Y-66750000D01*
X112543039Y-66769685D01*
G37*
G36*
X119243039Y-66719685D02*
G01*
X119288794Y-66772489D01*
X119300000Y-66824000D01*
X119300000Y-71076000D01*
X119280315Y-71143039D01*
X119227511Y-71188794D01*
X119176000Y-71200000D01*
X115972041Y-71200000D01*
X115905002Y-71180315D01*
X115859247Y-71127511D01*
X115849303Y-71058353D01*
X115854404Y-71036788D01*
X115899999Y-70899999D01*
X115893557Y-70891060D01*
X115856961Y-70880315D01*
X115811206Y-70827511D01*
X115800000Y-70776000D01*
X115800000Y-66824000D01*
X115819685Y-66756961D01*
X115872489Y-66711206D01*
X115924000Y-66700000D01*
X119176000Y-66700000D01*
X119243039Y-66719685D01*
G37*
G36*
X126243039Y-66719685D02*
G01*
X126288794Y-66772489D01*
X126300000Y-66824000D01*
X126300000Y-71076000D01*
X126280315Y-71143039D01*
X126227511Y-71188794D01*
X126176000Y-71200000D01*
X122972041Y-71200000D01*
X122905002Y-71180315D01*
X122859247Y-71127511D01*
X122849303Y-71058353D01*
X122854404Y-71036788D01*
X122899999Y-70899999D01*
X122893557Y-70891060D01*
X122856961Y-70880315D01*
X122811206Y-70827511D01*
X122800000Y-70776000D01*
X122800000Y-66824000D01*
X122819685Y-66756961D01*
X122872489Y-66711206D01*
X122924000Y-66700000D01*
X126176000Y-66700000D01*
X126243039Y-66719685D01*
G37*
G36*
X133343039Y-66719685D02*
G01*
X133388794Y-66772489D01*
X133400000Y-66824000D01*
X133400000Y-71076000D01*
X133380315Y-71143039D01*
X133327511Y-71188794D01*
X133276000Y-71200000D01*
X130072041Y-71200000D01*
X130005002Y-71180315D01*
X129959247Y-71127511D01*
X129949303Y-71058353D01*
X129954404Y-71036788D01*
X129999999Y-70899999D01*
X129993557Y-70891060D01*
X129956961Y-70880315D01*
X129911206Y-70827511D01*
X129900000Y-70776000D01*
X129900000Y-66824000D01*
X129919685Y-66756961D01*
X129972489Y-66711206D01*
X130024000Y-66700000D01*
X133276000Y-66700000D01*
X133343039Y-66719685D01*
G37*
G36*
X140093039Y-66719685D02*
G01*
X140138794Y-66772489D01*
X140150000Y-66824000D01*
X140150000Y-71076000D01*
X140130315Y-71143039D01*
X140077511Y-71188794D01*
X140026000Y-71200000D01*
X136872041Y-71200000D01*
X136805002Y-71180315D01*
X136759247Y-71127511D01*
X136749303Y-71058353D01*
X136754404Y-71036788D01*
X136799999Y-70899999D01*
X136793557Y-70891060D01*
X136756961Y-70880315D01*
X136711206Y-70827511D01*
X136700000Y-70776000D01*
X136700000Y-66824000D01*
X136719685Y-66756961D01*
X136772489Y-66711206D01*
X136824000Y-66700000D01*
X140026000Y-66700000D01*
X140093039Y-66719685D01*
G37*
G36*
X147043039Y-66719685D02*
G01*
X147088794Y-66772489D01*
X147100000Y-66824000D01*
X147100000Y-71076000D01*
X147080315Y-71143039D01*
X147027511Y-71188794D01*
X146976000Y-71200000D01*
X143772041Y-71200000D01*
X143705002Y-71180315D01*
X143659247Y-71127511D01*
X143649303Y-71058353D01*
X143654404Y-71036788D01*
X143699999Y-70899999D01*
X143693557Y-70891060D01*
X143656961Y-70880315D01*
X143611206Y-70827511D01*
X143600000Y-70776000D01*
X143600000Y-66824000D01*
X143619685Y-66756961D01*
X143672489Y-66711206D01*
X143724000Y-66700000D01*
X146976000Y-66700000D01*
X147043039Y-66719685D01*
G37*
G36*
X146843039Y-88219685D02*
G01*
X146888794Y-88272489D01*
X146900000Y-88324000D01*
X146900000Y-92576000D01*
X146880315Y-92643039D01*
X146827511Y-92688794D01*
X146776000Y-92700000D01*
X143572041Y-92700000D01*
X143505002Y-92680315D01*
X143459247Y-92627511D01*
X143449303Y-92558353D01*
X143454404Y-92536788D01*
X143499999Y-92399999D01*
X143493557Y-92391060D01*
X143456961Y-92380315D01*
X143411206Y-92327511D01*
X143400000Y-92276000D01*
X143400000Y-88324000D01*
X143419685Y-88256961D01*
X143472489Y-88211206D01*
X143524000Y-88200000D01*
X146776000Y-88200000D01*
X146843039Y-88219685D01*
G37*
G36*
X139893039Y-88219685D02*
G01*
X139938794Y-88272489D01*
X139950000Y-88324000D01*
X139950000Y-92576000D01*
X139930315Y-92643039D01*
X139877511Y-92688794D01*
X139826000Y-92700000D01*
X136672041Y-92700000D01*
X136605002Y-92680315D01*
X136559247Y-92627511D01*
X136549303Y-92558353D01*
X136554404Y-92536788D01*
X136599999Y-92399999D01*
X136593557Y-92391060D01*
X136556961Y-92380315D01*
X136511206Y-92327511D01*
X136500000Y-92276000D01*
X136500000Y-88324000D01*
X136519685Y-88256961D01*
X136572489Y-88211206D01*
X136624000Y-88200000D01*
X139826000Y-88200000D01*
X139893039Y-88219685D01*
G37*
G36*
X133143039Y-88219685D02*
G01*
X133188794Y-88272489D01*
X133200000Y-88324000D01*
X133200000Y-92576000D01*
X133180315Y-92643039D01*
X133127511Y-92688794D01*
X133076000Y-92700000D01*
X129872041Y-92700000D01*
X129805002Y-92680315D01*
X129759247Y-92627511D01*
X129749303Y-92558353D01*
X129754404Y-92536788D01*
X129799999Y-92399999D01*
X129793557Y-92391060D01*
X129756961Y-92380315D01*
X129711206Y-92327511D01*
X129700000Y-92276000D01*
X129700000Y-88324000D01*
X129719685Y-88256961D01*
X129772489Y-88211206D01*
X129824000Y-88200000D01*
X133076000Y-88200000D01*
X133143039Y-88219685D01*
G37*
G36*
X126043039Y-88219685D02*
G01*
X126088794Y-88272489D01*
X126100000Y-88324000D01*
X126100000Y-92576000D01*
X126080315Y-92643039D01*
X126027511Y-92688794D01*
X125976000Y-92700000D01*
X122772041Y-92700000D01*
X122705002Y-92680315D01*
X122659247Y-92627511D01*
X122649303Y-92558353D01*
X122654404Y-92536788D01*
X122699999Y-92399999D01*
X122693557Y-92391060D01*
X122656961Y-92380315D01*
X122611206Y-92327511D01*
X122600000Y-92276000D01*
X122600000Y-88324000D01*
X122619685Y-88256961D01*
X122672489Y-88211206D01*
X122724000Y-88200000D01*
X125976000Y-88200000D01*
X126043039Y-88219685D01*
G37*
G36*
X119043039Y-88219685D02*
G01*
X119088794Y-88272489D01*
X119100000Y-88324000D01*
X119100000Y-92576000D01*
X119080315Y-92643039D01*
X119027511Y-92688794D01*
X118976000Y-92700000D01*
X115772041Y-92700000D01*
X115705002Y-92680315D01*
X115659247Y-92627511D01*
X115649303Y-92558353D01*
X115654404Y-92536788D01*
X115699999Y-92399999D01*
X115693557Y-92391060D01*
X115656961Y-92380315D01*
X115611206Y-92327511D01*
X115600000Y-92276000D01*
X115600000Y-88324000D01*
X115619685Y-88256961D01*
X115672489Y-88211206D01*
X115724000Y-88200000D01*
X118976000Y-88200000D01*
X119043039Y-88219685D01*
G37*
G36*
X112343039Y-88119685D02*
G01*
X112388794Y-88172489D01*
X112400000Y-88224000D01*
X112400000Y-92476000D01*
X112380315Y-92543039D01*
X112327511Y-92588794D01*
X112276000Y-92600000D01*
X109072041Y-92600000D01*
X109005002Y-92580315D01*
X108959247Y-92527511D01*
X108949303Y-92458353D01*
X108954404Y-92436788D01*
X108999999Y-92299999D01*
X108993557Y-92291060D01*
X108956961Y-92280315D01*
X108911206Y-92227511D01*
X108900000Y-92176000D01*
X108900000Y-88224000D01*
X108919685Y-88156961D01*
X108972489Y-88111206D01*
X109024000Y-88100000D01*
X112276000Y-88100000D01*
X112343039Y-88119685D01*
G37*
G36*
X105343039Y-88219685D02*
G01*
X105388794Y-88272489D01*
X105400000Y-88324000D01*
X105400000Y-92576000D01*
X105380315Y-92643039D01*
X105327511Y-92688794D01*
X105276000Y-92700000D01*
X102072041Y-92700000D01*
X102005002Y-92680315D01*
X101959247Y-92627511D01*
X101949303Y-92558353D01*
X101954404Y-92536788D01*
X101999999Y-92399999D01*
X101993557Y-92391060D01*
X101956961Y-92380315D01*
X101911206Y-92327511D01*
X101900000Y-92276000D01*
X101900000Y-88324000D01*
X101919685Y-88256961D01*
X101972489Y-88211206D01*
X102024000Y-88200000D01*
X105276000Y-88200000D01*
X105343039Y-88219685D01*
G37*
M02*
